<?xml version="1.0" encoding="utf-8"?>
<svg xmlns="http://www.w3.org/2000/svg" xmlns:xlink="http://www.w3.org/1999/xlink" width="800" height="300" viewBox="0 0 3200 1200">
<defs>
  <clipPath id="clip9300">
    <rect x="0" y="0" width="3200" height="1200"/>
  </clipPath>
</defs>
<path clip-path="url(#clip9300)" d="
M0 1200 L3200 1200 L3200 0 L0 0  Z
  " fill="#ffffff" fill-rule="evenodd" fill-opacity="1"/>
<defs>
  <clipPath id="clip9301">
    <rect x="640" y="0" width="2241" height="1200"/>
  </clipPath>
</defs>
<path clip-path="url(#clip9300)" d="
M326.62 1017.22 L1559.45 1017.22 L1559.45 96.0013 L326.62 96.0013  Z
  " fill="#ffffff" fill-rule="evenodd" fill-opacity="1"/>
<defs>
  <clipPath id="clip9302">
    <rect x="326" y="96" width="1234" height="922"/>
  </clipPath>
</defs>
<polyline clip-path="url(#clip9302)" style="stroke:#000000; stroke-width:2; stroke-opacity:0.1; fill:none" points="
  361.511,1017.22 361.511,96.0013 
  "/>
<polyline clip-path="url(#clip9302)" style="stroke:#000000; stroke-width:2; stroke-opacity:0.1; fill:none" points="
  724.962,1017.22 724.962,96.0013 
  "/>
<polyline clip-path="url(#clip9302)" style="stroke:#000000; stroke-width:2; stroke-opacity:0.1; fill:none" points="
  1088.41,1017.22 1088.41,96.0013 
  "/>
<polyline clip-path="url(#clip9302)" style="stroke:#000000; stroke-width:2; stroke-opacity:0.1; fill:none" points="
  1451.86,1017.22 1451.86,96.0013 
  "/>
<polyline clip-path="url(#clip9302)" style="stroke:#000000; stroke-width:2; stroke-opacity:0.1; fill:none" points="
  326.62,991.652 1559.45,991.652 
  "/>
<polyline clip-path="url(#clip9302)" style="stroke:#000000; stroke-width:2; stroke-opacity:0.1; fill:none" points="
  326.62,818.687 1559.45,818.687 
  "/>
<polyline clip-path="url(#clip9302)" style="stroke:#000000; stroke-width:2; stroke-opacity:0.1; fill:none" points="
  326.62,645.722 1559.45,645.722 
  "/>
<polyline clip-path="url(#clip9302)" style="stroke:#000000; stroke-width:2; stroke-opacity:0.1; fill:none" points="
  326.62,472.757 1559.45,472.757 
  "/>
<polyline clip-path="url(#clip9302)" style="stroke:#000000; stroke-width:2; stroke-opacity:0.1; fill:none" points="
  326.62,299.792 1559.45,299.792 
  "/>
<polyline clip-path="url(#clip9302)" style="stroke:#000000; stroke-width:2; stroke-opacity:0.1; fill:none" points="
  326.62,126.827 1559.45,126.827 
  "/>
<polyline clip-path="url(#clip9300)" style="stroke:#000000; stroke-width:4; stroke-opacity:1; fill:none" points="
  326.62,1017.22 1559.45,1017.22 
  "/>
<polyline clip-path="url(#clip9300)" style="stroke:#000000; stroke-width:4; stroke-opacity:1; fill:none" points="
  326.62,1017.22 326.62,96.0013 
  "/>
<polyline clip-path="url(#clip9300)" style="stroke:#000000; stroke-width:4; stroke-opacity:1; fill:none" points="
  361.511,1017.22 361.511,1006.16 
  "/>
<polyline clip-path="url(#clip9300)" style="stroke:#000000; stroke-width:4; stroke-opacity:1; fill:none" points="
  724.962,1017.22 724.962,1006.16 
  "/>
<polyline clip-path="url(#clip9300)" style="stroke:#000000; stroke-width:4; stroke-opacity:1; fill:none" points="
  1088.41,1017.22 1088.41,1006.16 
  "/>
<polyline clip-path="url(#clip9300)" style="stroke:#000000; stroke-width:4; stroke-opacity:1; fill:none" points="
  1451.86,1017.22 1451.86,1006.16 
  "/>
<polyline clip-path="url(#clip9300)" style="stroke:#000000; stroke-width:4; stroke-opacity:1; fill:none" points="
  326.62,991.652 341.414,991.652 
  "/>
<polyline clip-path="url(#clip9300)" style="stroke:#000000; stroke-width:4; stroke-opacity:1; fill:none" points="
  326.62,818.687 341.414,818.687 
  "/>
<polyline clip-path="url(#clip9300)" style="stroke:#000000; stroke-width:4; stroke-opacity:1; fill:none" points="
  326.62,645.722 341.414,645.722 
  "/>
<polyline clip-path="url(#clip9300)" style="stroke:#000000; stroke-width:4; stroke-opacity:1; fill:none" points="
  326.62,472.757 341.414,472.757 
  "/>
<polyline clip-path="url(#clip9300)" style="stroke:#000000; stroke-width:4; stroke-opacity:1; fill:none" points="
  326.62,299.792 341.414,299.792 
  "/>
<polyline clip-path="url(#clip9300)" style="stroke:#000000; stroke-width:4; stroke-opacity:1; fill:none" points="
  326.62,126.827 341.414,126.827 
  "/>
<g clip-path="url(#clip9300)">
<text style="fill:#000000; fill-opacity:1; font-family:Arial,Helvetica Neue,Helvetica,sans-serif; font-size:48px; text-anchor:middle;" transform="rotate(0, 361.511, 1075.22)" x="361.511" y="1075.22">0</text>
</g>
<g clip-path="url(#clip9300)">
<text style="fill:#000000; fill-opacity:1; font-family:Arial,Helvetica Neue,Helvetica,sans-serif; font-size:48px; text-anchor:middle;" transform="rotate(0, 724.962, 1075.22)" x="724.962" y="1075.22">10</text>
</g>
<g clip-path="url(#clip9300)">
<text style="fill:#000000; fill-opacity:1; font-family:Arial,Helvetica Neue,Helvetica,sans-serif; font-size:48px; text-anchor:middle;" transform="rotate(0, 1088.41, 1075.22)" x="1088.41" y="1075.22">20</text>
</g>
<g clip-path="url(#clip9300)">
<text style="fill:#000000; fill-opacity:1; font-family:Arial,Helvetica Neue,Helvetica,sans-serif; font-size:48px; text-anchor:middle;" transform="rotate(0, 1451.86, 1075.22)" x="1451.86" y="1075.22">30</text>
</g>
<g clip-path="url(#clip9300)">
<text style="fill:#000000; fill-opacity:1; font-family:Arial,Helvetica Neue,Helvetica,sans-serif; font-size:48px; text-anchor:end;" transform="rotate(0, 294.62, 1009.15)" x="294.62" y="1009.15">0</text>
</g>
<g clip-path="url(#clip9300)">
<text style="fill:#000000; fill-opacity:1; font-family:Arial,Helvetica Neue,Helvetica,sans-serif; font-size:48px; text-anchor:start;" transform="rotate(0, 164.478, 842.415)" x="164.478" y="842.415">1×10</text>
</g>
<g clip-path="url(#clip9300)">
<text style="fill:#000000; fill-opacity:1; font-family:Arial,Helvetica Neue,Helvetica,sans-serif; font-size:38px; text-anchor:start;" transform="rotate(0, 272.875, 815.004)" x="272.875" y="815.004">5</text>
</g>
<g clip-path="url(#clip9300)">
<text style="fill:#000000; fill-opacity:1; font-family:Arial,Helvetica Neue,Helvetica,sans-serif; font-size:48px; text-anchor:start;" transform="rotate(0, 164.478, 669.45)" x="164.478" y="669.45">2×10</text>
</g>
<g clip-path="url(#clip9300)">
<text style="fill:#000000; fill-opacity:1; font-family:Arial,Helvetica Neue,Helvetica,sans-serif; font-size:38px; text-anchor:start;" transform="rotate(0, 272.875, 642.039)" x="272.875" y="642.039">5</text>
</g>
<g clip-path="url(#clip9300)">
<text style="fill:#000000; fill-opacity:1; font-family:Arial,Helvetica Neue,Helvetica,sans-serif; font-size:48px; text-anchor:start;" transform="rotate(0, 164.478, 496.484)" x="164.478" y="496.484">3×10</text>
</g>
<g clip-path="url(#clip9300)">
<text style="fill:#000000; fill-opacity:1; font-family:Arial,Helvetica Neue,Helvetica,sans-serif; font-size:38px; text-anchor:start;" transform="rotate(0, 272.875, 469.074)" x="272.875" y="469.074">5</text>
</g>
<g clip-path="url(#clip9300)">
<text style="fill:#000000; fill-opacity:1; font-family:Arial,Helvetica Neue,Helvetica,sans-serif; font-size:48px; text-anchor:start;" transform="rotate(0, 164.478, 323.519)" x="164.478" y="323.519">4×10</text>
</g>
<g clip-path="url(#clip9300)">
<text style="fill:#000000; fill-opacity:1; font-family:Arial,Helvetica Neue,Helvetica,sans-serif; font-size:38px; text-anchor:start;" transform="rotate(0, 272.875, 296.109)" x="272.875" y="296.109">5</text>
</g>
<g clip-path="url(#clip9300)">
<text style="fill:#000000; fill-opacity:1; font-family:Arial,Helvetica Neue,Helvetica,sans-serif; font-size:48px; text-anchor:start;" transform="rotate(0, 164.478, 150.554)" x="164.478" y="150.554">5×10</text>
</g>
<g clip-path="url(#clip9300)">
<text style="fill:#000000; fill-opacity:1; font-family:Arial,Helvetica Neue,Helvetica,sans-serif; font-size:38px; text-anchor:start;" transform="rotate(0, 272.875, 123.144)" x="272.875" y="123.144">5</text>
</g>
<g clip-path="url(#clip9300)">
<text style="fill:#000000; fill-opacity:1; font-family:Arial,Helvetica Neue,Helvetica,sans-serif; font-size:82px; text-anchor:middle;" transform="rotate(0, 943.033, 72)" x="943.033" y="72">Day0 = After 100 Confirmed Cases</text>
</g>
<g clip-path="url(#clip9300)">
<text style="fill:#000000; fill-opacity:1; font-family:Arial,Helvetica Neue,Helvetica,sans-serif; font-size:66px; text-anchor:middle;" transform="rotate(0, 943.033, 1159.08)" x="943.033" y="1159.08">Days</text>
</g>
<g clip-path="url(#clip9300)">
<text style="fill:#000000; fill-opacity:1; font-family:Arial,Helvetica Neue,Helvetica,sans-serif; font-size:66px; text-anchor:middle;" transform="rotate(-90, 76.8619, 556.609)" x="76.8619" y="556.609">CumSum N.Confirmed</text>
</g>
<polyline clip-path="url(#clip9302)" style="stroke:#009af9; stroke-width:4; stroke-opacity:1; fill:none" points="
  361.511,990.613 397.856,990.26 434.201,989.511 470.547,988.47 506.892,987.029 543.237,985.339 579.582,983.158 615.927,980.103 652.272,976.061 688.617,970.613 
  724.962,964.151 761.308,956.653 797.653,947.683 833.998,937.96 870.343,927.43 906.688,916.027 943.033,903.848 979.378,891.198 1015.72,878.263 1052.07,865.268 
  1088.41,851.855 1124.76,838.244 1161.1,824.443 1197.45,810.457 1233.79,796.34 1270.14,782.095 1306.48,767.704 1342.83,753.152 1379.17,738.338 1415.52,723.373 
  1451.86,708.154 1488.21,692.654 1524.56,677.155 
  "/>
<polyline clip-path="url(#clip9302)" style="stroke:#e26f46; stroke-width:4; stroke-opacity:1; fill:none" points="
  361.511,990.009 397.856,989.751 434.201,989.376 470.547,988.923 506.892,988.227 543.237,987.332 579.582,986.323 615.927,984.664 652.272,982.449 688.617,979.572 
  724.962,975.803 761.308,971.087 797.653,965.035 833.998,957.023 870.343,945.917 906.688,932.455 943.033,908.798 979.378,875.762 1015.72,831.675 1052.07,774.119 
  1088.41,698.279 
  "/>
<polyline clip-path="url(#clip9302)" style="stroke:#3da44d; stroke-width:4; stroke-opacity:1; fill:none" points="
  361.511,991.145 397.856,990.749 434.201,990.192 470.547,989.409 506.892,988.276 543.237,986.74 579.582,984.789 615.927,981.859 652.272,978.337 688.617,974.01 
  724.962,968.667 761.308,961.994 797.653,953.975 833.998,943.8 870.343,931.043 906.688,915.179 943.033,897.625 979.378,876.07 1015.72,854.515 1052.07,823.969 
  1088.41,787.375 1124.76,744.572 1161.1,696.176 1197.45,641.681 1233.79,579.91 1270.14,508.934 1306.48,427.604 1342.83,334.933 1379.17,232.645 1415.52,122.073 
  
  "/>
<polyline clip-path="url(#clip9302)" style="stroke:#c271d2; stroke-width:4; stroke-opacity:1; fill:none" points="
  361.511,991.038 397.856,990.753 434.201,990.369 470.547,989.921 506.892,989.229 543.237,988.364 579.582,987.2 615.927,985.344 652.272,982.412 688.617,978.474 
  724.962,974.536 761.308,965.486 797.653,954.432 833.998,940.944 870.343,923.748 906.688,903.428 943.033,879.368 979.378,848.299 1015.72,812.997 1052.07,769.108 
  1088.41,719.35 1124.76,658.577 
  "/>
<polyline clip-path="url(#clip9302)" style="stroke:#ac8d18; stroke-width:4; stroke-opacity:1; fill:none" points="
  361.511,990.976 397.856,990.552 434.201,989.881 470.547,988.855 506.892,987.164 543.237,984.568 579.582,980.527 615.927,975.473 652.272,969.397 688.617,961.186 
  724.962,951.114 761.308,939.757 797.653,927.371 833.998,913.462 870.343,897.895 906.688,880.468 943.033,860.813 979.378,838.796 1015.72,814.688 1052.07,788.759 
  1088.41,760.792 1124.76,730.764 1161.1,698.926 1197.45,664.949 1233.79,629.301 1270.14,591.874 1306.48,552.008 
  "/>
<path clip-path="url(#clip9300)" d="
M422.62 590.401 L871.041 590.401 L871.041 227.521 L422.62 227.521  Z
  " fill="#ffffff" fill-rule="evenodd" fill-opacity="1"/>
<polyline clip-path="url(#clip9300)" style="stroke:#000000; stroke-width:4; stroke-opacity:1; fill:none" points="
  422.62,590.401 871.041,590.401 871.041,227.521 422.62,227.521 422.62,590.401 
  "/>
<polyline clip-path="url(#clip9300)" style="stroke:#009af9; stroke-width:4; stroke-opacity:1; fill:none" points="
  454.62,288.001 646.62,288.001 
  "/>
<g clip-path="url(#clip9300)">
<text style="fill:#000000; fill-opacity:1; font-family:Arial,Helvetica Neue,Helvetica,sans-serif; font-size:48px; text-anchor:start;" transform="rotate(0, 678.62, 305.501)" x="678.62" y="305.501">Korea</text>
</g>
<polyline clip-path="url(#clip9300)" style="stroke:#e26f46; stroke-width:4; stroke-opacity:1; fill:none" points="
  454.62,348.481 646.62,348.481 
  "/>
<g clip-path="url(#clip9300)">
<text style="fill:#000000; fill-opacity:1; font-family:Arial,Helvetica Neue,Helvetica,sans-serif; font-size:48px; text-anchor:start;" transform="rotate(0, 678.62, 365.981)" x="678.62" y="365.981">US</text>
</g>
<polyline clip-path="url(#clip9300)" style="stroke:#3da44d; stroke-width:4; stroke-opacity:1; fill:none" points="
  454.62,408.961 646.62,408.961 
  "/>
<g clip-path="url(#clip9300)">
<text style="fill:#000000; fill-opacity:1; font-family:Arial,Helvetica Neue,Helvetica,sans-serif; font-size:48px; text-anchor:start;" transform="rotate(0, 678.62, 426.461)" x="678.62" y="426.461">Italy</text>
</g>
<polyline clip-path="url(#clip9300)" style="stroke:#c271d2; stroke-width:4; stroke-opacity:1; fill:none" points="
  454.62,469.441 646.62,469.441 
  "/>
<g clip-path="url(#clip9300)">
<text style="fill:#000000; fill-opacity:1; font-family:Arial,Helvetica Neue,Helvetica,sans-serif; font-size:48px; text-anchor:start;" transform="rotate(0, 678.62, 486.941)" x="678.62" y="486.941">Spain</text>
</g>
<polyline clip-path="url(#clip9300)" style="stroke:#ac8d18; stroke-width:4; stroke-opacity:1; fill:none" points="
  454.62,529.921 646.62,529.921 
  "/>
<g clip-path="url(#clip9300)">
<text style="fill:#000000; fill-opacity:1; font-family:Arial,Helvetica Neue,Helvetica,sans-serif; font-size:48px; text-anchor:start;" transform="rotate(0, 678.62, 547.421)" x="678.62" y="547.421">Iran</text>
</g>
<path clip-path="url(#clip9300)" d="
M1919.93 1017.22 L3152.76 1017.22 L3152.76 96.0013 L1919.93 96.0013  Z
  " fill="#ffffff" fill-rule="evenodd" fill-opacity="1"/>
<defs>
  <clipPath id="clip9303">
    <rect x="1919" y="96" width="1234" height="922"/>
  </clipPath>
</defs>
<polyline clip-path="url(#clip9303)" style="stroke:#000000; stroke-width:2; stroke-opacity:0.1; fill:none" points="
  1954.82,1017.22 1954.82,96.0013 
  "/>
<polyline clip-path="url(#clip9303)" style="stroke:#000000; stroke-width:2; stroke-opacity:0.1; fill:none" points="
  2219.15,1017.22 2219.15,96.0013 
  "/>
<polyline clip-path="url(#clip9303)" style="stroke:#000000; stroke-width:2; stroke-opacity:0.1; fill:none" points="
  2483.48,1017.22 2483.48,96.0013 
  "/>
<polyline clip-path="url(#clip9303)" style="stroke:#000000; stroke-width:2; stroke-opacity:0.1; fill:none" points="
  2747.81,1017.22 2747.81,96.0013 
  "/>
<polyline clip-path="url(#clip9303)" style="stroke:#000000; stroke-width:2; stroke-opacity:0.1; fill:none" points="
  3012.13,1017.22 3012.13,96.0013 
  "/>
<polyline clip-path="url(#clip9303)" style="stroke:#000000; stroke-width:2; stroke-opacity:0.1; fill:none" points="
  1919.93,994.523 3152.76,994.523 
  "/>
<polyline clip-path="url(#clip9303)" style="stroke:#000000; stroke-width:2; stroke-opacity:0.1; fill:none" points="
  1919.93,776.607 3152.76,776.607 
  "/>
<polyline clip-path="url(#clip9303)" style="stroke:#000000; stroke-width:2; stroke-opacity:0.1; fill:none" points="
  1919.93,558.691 3152.76,558.691 
  "/>
<polyline clip-path="url(#clip9303)" style="stroke:#000000; stroke-width:2; stroke-opacity:0.1; fill:none" points="
  1919.93,340.774 3152.76,340.774 
  "/>
<polyline clip-path="url(#clip9303)" style="stroke:#000000; stroke-width:2; stroke-opacity:0.1; fill:none" points="
  1919.93,122.858 3152.76,122.858 
  "/>
<polyline clip-path="url(#clip9300)" style="stroke:#000000; stroke-width:4; stroke-opacity:1; fill:none" points="
  1919.93,1017.22 3152.76,1017.22 
  "/>
<polyline clip-path="url(#clip9300)" style="stroke:#000000; stroke-width:4; stroke-opacity:1; fill:none" points="
  1919.93,1017.22 1919.93,96.0013 
  "/>
<polyline clip-path="url(#clip9300)" style="stroke:#000000; stroke-width:4; stroke-opacity:1; fill:none" points="
  1954.82,1017.22 1954.82,1006.16 
  "/>
<polyline clip-path="url(#clip9300)" style="stroke:#000000; stroke-width:4; stroke-opacity:1; fill:none" points="
  2219.15,1017.22 2219.15,1006.16 
  "/>
<polyline clip-path="url(#clip9300)" style="stroke:#000000; stroke-width:4; stroke-opacity:1; fill:none" points="
  2483.48,1017.22 2483.48,1006.16 
  "/>
<polyline clip-path="url(#clip9300)" style="stroke:#000000; stroke-width:4; stroke-opacity:1; fill:none" points="
  2747.81,1017.22 2747.81,1006.16 
  "/>
<polyline clip-path="url(#clip9300)" style="stroke:#000000; stroke-width:4; stroke-opacity:1; fill:none" points="
  3012.13,1017.22 3012.13,1006.16 
  "/>
<polyline clip-path="url(#clip9300)" style="stroke:#000000; stroke-width:4; stroke-opacity:1; fill:none" points="
  1919.93,994.523 1934.72,994.523 
  "/>
<polyline clip-path="url(#clip9300)" style="stroke:#000000; stroke-width:4; stroke-opacity:1; fill:none" points="
  1919.93,776.607 1934.72,776.607 
  "/>
<polyline clip-path="url(#clip9300)" style="stroke:#000000; stroke-width:4; stroke-opacity:1; fill:none" points="
  1919.93,558.691 1934.72,558.691 
  "/>
<polyline clip-path="url(#clip9300)" style="stroke:#000000; stroke-width:4; stroke-opacity:1; fill:none" points="
  1919.93,340.774 1934.72,340.774 
  "/>
<polyline clip-path="url(#clip9300)" style="stroke:#000000; stroke-width:4; stroke-opacity:1; fill:none" points="
  1919.93,122.858 1934.72,122.858 
  "/>
<g clip-path="url(#clip9300)">
<text style="fill:#000000; fill-opacity:1; font-family:Arial,Helvetica Neue,Helvetica,sans-serif; font-size:48px; text-anchor:middle;" transform="rotate(0, 1954.82, 1075.22)" x="1954.82" y="1075.22">0</text>
</g>
<g clip-path="url(#clip9300)">
<text style="fill:#000000; fill-opacity:1; font-family:Arial,Helvetica Neue,Helvetica,sans-serif; font-size:48px; text-anchor:middle;" transform="rotate(0, 2219.15, 1075.22)" x="2219.15" y="1075.22">5</text>
</g>
<g clip-path="url(#clip9300)">
<text style="fill:#000000; fill-opacity:1; font-family:Arial,Helvetica Neue,Helvetica,sans-serif; font-size:48px; text-anchor:middle;" transform="rotate(0, 2483.48, 1075.22)" x="2483.48" y="1075.22">10</text>
</g>
<g clip-path="url(#clip9300)">
<text style="fill:#000000; fill-opacity:1; font-family:Arial,Helvetica Neue,Helvetica,sans-serif; font-size:48px; text-anchor:middle;" transform="rotate(0, 2747.81, 1075.22)" x="2747.81" y="1075.22">15</text>
</g>
<g clip-path="url(#clip9300)">
<text style="fill:#000000; fill-opacity:1; font-family:Arial,Helvetica Neue,Helvetica,sans-serif; font-size:48px; text-anchor:middle;" transform="rotate(0, 3012.13, 1075.22)" x="3012.13" y="1075.22">20</text>
</g>
<g clip-path="url(#clip9300)">
<text style="fill:#000000; fill-opacity:1; font-family:Arial,Helvetica Neue,Helvetica,sans-serif; font-size:48px; text-anchor:end;" transform="rotate(0, 1887.93, 1012.02)" x="1887.93" y="1012.02">0</text>
</g>
<g clip-path="url(#clip9300)">
<text style="fill:#000000; fill-opacity:1; font-family:Arial,Helvetica Neue,Helvetica,sans-serif; font-size:48px; text-anchor:start;" transform="rotate(0, 1757.79, 800.334)" x="1757.79" y="800.334">1×10</text>
</g>
<g clip-path="url(#clip9300)">
<text style="fill:#000000; fill-opacity:1; font-family:Arial,Helvetica Neue,Helvetica,sans-serif; font-size:38px; text-anchor:start;" transform="rotate(0, 1866.18, 772.924)" x="1866.18" y="772.924">4</text>
</g>
<g clip-path="url(#clip9300)">
<text style="fill:#000000; fill-opacity:1; font-family:Arial,Helvetica Neue,Helvetica,sans-serif; font-size:48px; text-anchor:start;" transform="rotate(0, 1757.79, 582.418)" x="1757.79" y="582.418">2×10</text>
</g>
<g clip-path="url(#clip9300)">
<text style="fill:#000000; fill-opacity:1; font-family:Arial,Helvetica Neue,Helvetica,sans-serif; font-size:38px; text-anchor:start;" transform="rotate(0, 1866.18, 555.008)" x="1866.18" y="555.008">4</text>
</g>
<g clip-path="url(#clip9300)">
<text style="fill:#000000; fill-opacity:1; font-family:Arial,Helvetica Neue,Helvetica,sans-serif; font-size:48px; text-anchor:start;" transform="rotate(0, 1757.79, 364.502)" x="1757.79" y="364.502">3×10</text>
</g>
<g clip-path="url(#clip9300)">
<text style="fill:#000000; fill-opacity:1; font-family:Arial,Helvetica Neue,Helvetica,sans-serif; font-size:38px; text-anchor:start;" transform="rotate(0, 1866.18, 337.091)" x="1866.18" y="337.091">4</text>
</g>
<g clip-path="url(#clip9300)">
<text style="fill:#000000; fill-opacity:1; font-family:Arial,Helvetica Neue,Helvetica,sans-serif; font-size:48px; text-anchor:start;" transform="rotate(0, 1757.79, 146.586)" x="1757.79" y="146.586">4×10</text>
</g>
<g clip-path="url(#clip9300)">
<text style="fill:#000000; fill-opacity:1; font-family:Arial,Helvetica Neue,Helvetica,sans-serif; font-size:38px; text-anchor:start;" transform="rotate(0, 1866.18, 119.175)" x="1866.18" y="119.175">4</text>
</g>
<g clip-path="url(#clip9300)">
<text style="fill:#000000; fill-opacity:1; font-family:Arial,Helvetica Neue,Helvetica,sans-serif; font-size:82px; text-anchor:middle;" transform="rotate(0, 2536.34, 72)" x="2536.34" y="72">Day0 = After 50 Death Cases</text>
</g>
<g clip-path="url(#clip9300)">
<text style="fill:#000000; fill-opacity:1; font-family:Arial,Helvetica Neue,Helvetica,sans-serif; font-size:66px; text-anchor:middle;" transform="rotate(0, 2536.34, 1159.08)" x="2536.34" y="1159.08">Days</text>
</g>
<g clip-path="url(#clip9300)">
<text style="fill:#000000; fill-opacity:1; font-family:Arial,Helvetica Neue,Helvetica,sans-serif; font-size:66px; text-anchor:middle;" transform="rotate(-90, 1683.55, 556.609)" x="1683.55" y="556.609">CumSum N.Confirmed</text>
</g>
<polyline clip-path="url(#clip9303)" style="stroke:#009af9; stroke-width:4; stroke-opacity:1; fill:none" points="
  1954.82,986.635 2007.69,985.48 2060.55,984.303 2113.42,982.995 2166.28,981.557 2219.15,980.119 2272.01,978.55 2324.88,976.915 2377.75,975.281 2430.61,973.516 
  2483.48,971.685 2536.34,969.702 2589.21,967.654 2642.07,965.431 2694.94,963.012 2747.81,960.594 
  "/>
<polyline clip-path="url(#clip9303)" style="stroke:#e26f46; stroke-width:4; stroke-opacity:1; fill:none" points="
  1954.82,987.615 2007.69,986.242 2060.55,984.39 2113.42,982.037 2166.28,979.465 2219.15,975.107 2272.01,969.79 2324.88,963.1 2377.75,954.012 2430.61,941.875 
  
  "/>
<polyline clip-path="url(#clip9303)" style="stroke:#3da44d; stroke-width:4; stroke-opacity:1; fill:none" points="
  1954.82,990.426 2007.69,988.705 2060.55,986.373 2113.42,983.148 2166.28,978.855 2219.15,973.777 2272.01,965.802 2324.88,955.712 2377.75,941.962 2430.61,923.94 
  2483.48,905.918 2536.34,878.33 2589.21,846.928 2642.07,807.507 2694.94,760.481 2747.81,705.937 2800.67,641.041 2853.54,566.841 2906.4,478.977 2959.27,373.832 
  3012.13,254.501 3065,122.073 
  "/>
<polyline clip-path="url(#clip9303)" style="stroke:#c271d2; stroke-width:4; stroke-opacity:1; fill:none" points="
  1954.82,991.145 2007.69,989.947 2060.55,987.049 2113.42,982.799 2166.28,976.501 2219.15,969.049 2272.01,957.434 2324.88,943.858 2377.75,925.771 2430.61,903.042 
  2483.48,873.078 2536.34,834.464 2589.21,784.103 
  "/>
<polyline clip-path="url(#clip9303)" style="stroke:#ac8d18; stroke-width:4; stroke-opacity:1; fill:none" points="
  1954.82,989.62 2007.69,988.182 2060.55,986.504 2113.42,984.499 2166.28,982.167 2219.15,979.465 2272.01,976.305 2324.88,972.078 2377.75,966.913 2430.61,960.572 
  2483.48,952.858 2536.34,943.509 2589.21,932.308 2642.07,918.993 2694.94,903.216 2747.81,884.628 2800.67,863.098 2853.54,838.364 2906.4,810.384 2959.27,779.156 
  3012.13,745.249 3065,708.53 3117.86,669.043 
  "/>
<path clip-path="url(#clip9300)" d="
M2015.93 590.401 L2464.35 590.401 L2464.35 227.521 L2015.93 227.521  Z
  " fill="#ffffff" fill-rule="evenodd" fill-opacity="1"/>
<polyline clip-path="url(#clip9300)" style="stroke:#000000; stroke-width:4; stroke-opacity:1; fill:none" points="
  2015.93,590.401 2464.35,590.401 2464.35,227.521 2015.93,227.521 2015.93,590.401 
  "/>
<polyline clip-path="url(#clip9300)" style="stroke:#009af9; stroke-width:4; stroke-opacity:1; fill:none" points="
  2047.93,288.001 2239.93,288.001 
  "/>
<g clip-path="url(#clip9300)">
<text style="fill:#000000; fill-opacity:1; font-family:Arial,Helvetica Neue,Helvetica,sans-serif; font-size:48px; text-anchor:start;" transform="rotate(0, 2271.93, 305.501)" x="2271.93" y="305.501">Korea</text>
</g>
<polyline clip-path="url(#clip9300)" style="stroke:#e26f46; stroke-width:4; stroke-opacity:1; fill:none" points="
  2047.93,348.481 2239.93,348.481 
  "/>
<g clip-path="url(#clip9300)">
<text style="fill:#000000; fill-opacity:1; font-family:Arial,Helvetica Neue,Helvetica,sans-serif; font-size:48px; text-anchor:start;" transform="rotate(0, 2271.93, 365.981)" x="2271.93" y="365.981">US</text>
</g>
<polyline clip-path="url(#clip9300)" style="stroke:#3da44d; stroke-width:4; stroke-opacity:1; fill:none" points="
  2047.93,408.961 2239.93,408.961 
  "/>
<g clip-path="url(#clip9300)">
<text style="fill:#000000; fill-opacity:1; font-family:Arial,Helvetica Neue,Helvetica,sans-serif; font-size:48px; text-anchor:start;" transform="rotate(0, 2271.93, 426.461)" x="2271.93" y="426.461">Italy</text>
</g>
<polyline clip-path="url(#clip9300)" style="stroke:#c271d2; stroke-width:4; stroke-opacity:1; fill:none" points="
  2047.93,469.441 2239.93,469.441 
  "/>
<g clip-path="url(#clip9300)">
<text style="fill:#000000; fill-opacity:1; font-family:Arial,Helvetica Neue,Helvetica,sans-serif; font-size:48px; text-anchor:start;" transform="rotate(0, 2271.93, 486.941)" x="2271.93" y="486.941">Spain</text>
</g>
<polyline clip-path="url(#clip9300)" style="stroke:#ac8d18; stroke-width:4; stroke-opacity:1; fill:none" points="
  2047.93,529.921 2239.93,529.921 
  "/>
<g clip-path="url(#clip9300)">
<text style="fill:#000000; fill-opacity:1; font-family:Arial,Helvetica Neue,Helvetica,sans-serif; font-size:48px; text-anchor:start;" transform="rotate(0, 2271.93, 547.421)" x="2271.93" y="547.421">Iran</text>
</g>
</svg>
