<?xml version="1.0" encoding="utf-8"?>
<svg xmlns="http://www.w3.org/2000/svg" xmlns:xlink="http://www.w3.org/1999/xlink" width="800" height="300" viewBox="0 0 3200 1200">
<defs>
  <clipPath id="clip0100">
    <rect x="0" y="0" width="3200" height="1200"/>
  </clipPath>
</defs>
<path clip-path="url(#clip0100)" d="
M0 1200 L3200 1200 L3200 0 L0 0  Z
  " fill="#ffffff" fill-rule="evenodd" fill-opacity="1"/>
<defs>
  <clipPath id="clip0101">
    <rect x="640" y="0" width="2241" height="1200"/>
  </clipPath>
</defs>
<path clip-path="url(#clip0100)" d="
M179.186 1017.22 L1552.76 1017.22 L1552.76 47.2441 L179.186 47.2441  Z
  " fill="#ffffff" fill-rule="evenodd" fill-opacity="1"/>
<defs>
  <clipPath id="clip0102">
    <rect x="179" y="47" width="1375" height="971"/>
  </clipPath>
</defs>
<polyline clip-path="url(#clip0102)" style="stroke:#000000; stroke-width:2; stroke-opacity:0.1; fill:none" points="
  430.491,1017.22 430.491,47.2441 
  "/>
<polyline clip-path="url(#clip0102)" style="stroke:#000000; stroke-width:2; stroke-opacity:0.1; fill:none" points="
  1046.54,1017.22 1046.54,47.2441 
  "/>
<polyline clip-path="url(#clip0102)" style="stroke:#000000; stroke-width:2; stroke-opacity:0.1; fill:none" points="
  179.186,864.184 1552.76,864.184 
  "/>
<polyline clip-path="url(#clip0102)" style="stroke:#000000; stroke-width:2; stroke-opacity:0.1; fill:none" points="
  179.186,710.213 1552.76,710.213 
  "/>
<polyline clip-path="url(#clip0102)" style="stroke:#000000; stroke-width:2; stroke-opacity:0.1; fill:none" points="
  179.186,556.242 1552.76,556.242 
  "/>
<polyline clip-path="url(#clip0102)" style="stroke:#000000; stroke-width:2; stroke-opacity:0.1; fill:none" points="
  179.186,402.272 1552.76,402.272 
  "/>
<polyline clip-path="url(#clip0102)" style="stroke:#000000; stroke-width:2; stroke-opacity:0.1; fill:none" points="
  179.186,248.301 1552.76,248.301 
  "/>
<polyline clip-path="url(#clip0102)" style="stroke:#000000; stroke-width:2; stroke-opacity:0.1; fill:none" points="
  179.186,94.33 1552.76,94.33 
  "/>
<polyline clip-path="url(#clip0100)" style="stroke:#000000; stroke-width:4; stroke-opacity:1; fill:none" points="
  179.186,1017.22 1552.76,1017.22 
  "/>
<polyline clip-path="url(#clip0100)" style="stroke:#000000; stroke-width:4; stroke-opacity:1; fill:none" points="
  179.186,1017.22 179.186,47.2441 
  "/>
<polyline clip-path="url(#clip0100)" style="stroke:#000000; stroke-width:4; stroke-opacity:1; fill:none" points="
  430.491,1017.22 430.491,1005.58 
  "/>
<polyline clip-path="url(#clip0100)" style="stroke:#000000; stroke-width:4; stroke-opacity:1; fill:none" points="
  1046.54,1017.22 1046.54,1005.58 
  "/>
<polyline clip-path="url(#clip0100)" style="stroke:#000000; stroke-width:4; stroke-opacity:1; fill:none" points="
  179.186,864.184 195.669,864.184 
  "/>
<polyline clip-path="url(#clip0100)" style="stroke:#000000; stroke-width:4; stroke-opacity:1; fill:none" points="
  179.186,710.213 195.669,710.213 
  "/>
<polyline clip-path="url(#clip0100)" style="stroke:#000000; stroke-width:4; stroke-opacity:1; fill:none" points="
  179.186,556.242 195.669,556.242 
  "/>
<polyline clip-path="url(#clip0100)" style="stroke:#000000; stroke-width:4; stroke-opacity:1; fill:none" points="
  179.186,402.272 195.669,402.272 
  "/>
<polyline clip-path="url(#clip0100)" style="stroke:#000000; stroke-width:4; stroke-opacity:1; fill:none" points="
  179.186,248.301 195.669,248.301 
  "/>
<polyline clip-path="url(#clip0100)" style="stroke:#000000; stroke-width:4; stroke-opacity:1; fill:none" points="
  179.186,94.33 195.669,94.33 
  "/>
<g clip-path="url(#clip0100)">
<text style="fill:#000000; fill-opacity:1; font-family:Arial,Helvetica Neue,Helvetica,sans-serif; font-size:48px; text-anchor:middle;" transform="rotate(0, 430.491, 1075.22)" x="430.491" y="1075.22">2020-02-01</text>
</g>
<g clip-path="url(#clip0100)">
<text style="fill:#000000; fill-opacity:1; font-family:Arial,Helvetica Neue,Helvetica,sans-serif; font-size:48px; text-anchor:middle;" transform="rotate(0, 1046.54, 1075.22)" x="1046.54" y="1075.22">2020-03-01</text>
</g>
<g clip-path="url(#clip0100)">
<text style="fill:#000000; fill-opacity:1; font-family:Arial,Helvetica Neue,Helvetica,sans-serif; font-size:48px; text-anchor:end;" transform="rotate(0, 147.186, 881.684)" x="147.186" y="881.684">0</text>
</g>
<g clip-path="url(#clip0100)">
<text style="fill:#000000; fill-opacity:1; font-family:Arial,Helvetica Neue,Helvetica,sans-serif; font-size:48px; text-anchor:end;" transform="rotate(0, 147.186, 727.713)" x="147.186" y="727.713">1</text>
</g>
<g clip-path="url(#clip0100)">
<text style="fill:#000000; fill-opacity:1; font-family:Arial,Helvetica Neue,Helvetica,sans-serif; font-size:48px; text-anchor:end;" transform="rotate(0, 147.186, 573.742)" x="147.186" y="573.742">2</text>
</g>
<g clip-path="url(#clip0100)">
<text style="fill:#000000; fill-opacity:1; font-family:Arial,Helvetica Neue,Helvetica,sans-serif; font-size:48px; text-anchor:end;" transform="rotate(0, 147.186, 419.772)" x="147.186" y="419.772">3</text>
</g>
<g clip-path="url(#clip0100)">
<text style="fill:#000000; fill-opacity:1; font-family:Arial,Helvetica Neue,Helvetica,sans-serif; font-size:48px; text-anchor:end;" transform="rotate(0, 147.186, 265.801)" x="147.186" y="265.801">4</text>
</g>
<g clip-path="url(#clip0100)">
<text style="fill:#000000; fill-opacity:1; font-family:Arial,Helvetica Neue,Helvetica,sans-serif; font-size:48px; text-anchor:end;" transform="rotate(0, 147.186, 111.83)" x="147.186" y="111.83">5</text>
</g>
<g clip-path="url(#clip0100)">
<text style="fill:#000000; fill-opacity:1; font-family:Arial,Helvetica Neue,Helvetica,sans-serif; font-size:66px; text-anchor:middle;" transform="rotate(0, 865.971, 1159.08)" x="865.971" y="1159.08">Date</text>
</g>
<g clip-path="url(#clip0100)">
<text style="fill:#000000; fill-opacity:1; font-family:Arial,Helvetica Neue,Helvetica,sans-serif; font-size:66px; text-anchor:middle;" transform="rotate(-90, 76.8619, 532.231)" x="76.8619" y="532.231">Standardized N.Confirmed</text>
</g>
<polyline clip-path="url(#clip0102)" style="stroke:#009af9; stroke-width:4; stroke-opacity:1; fill:none" points="
  218.061,989.765 239.304,989.765 260.547,989.723 281.79,989.723 303.033,989.68 324.276,989.637 345.519,989.637 366.762,989.637 388.005,989.637 409.248,989.337 
  430.491,989.294 451.733,989.166 472.976,989.166 494.219,989.123 515.462,988.994 536.705,988.823 557.948,988.78 579.191,988.78 600.434,988.737 621.677,988.652 
  642.92,988.609 664.163,988.609 685.406,988.609 706.649,988.609 727.892,988.609 749.135,988.566 770.378,988.523 791.621,988.48 812.864,988.48 834.107,985.353 
  855.35,981.07 876.593,971.26 897.836,964.021 919.079,954.126 940.321,947.958 961.564,935.792 982.807,914.16 1004.05,889.701 1025.29,854.875 1046.54,829.774 
  1067.78,804.115 1089.02,767.662 1110.27,749.028 1131.51,729.024 1152.75,707.391 1173.99,688.201 1195.24,676.507 1216.48,669.482 1237.72,667.982 1258.97,657.616 
  1280.21,652.733 1301.45,648.021 1322.69,643.438 1343.94,640.182 1365.18,637.012 1386.42,633.414 1407.67,629.43 1428.91,622.919 1450.15,619.192 1471.4,612.896 
  1492.64,605.956 1513.88,605.956 
  "/>
<polyline clip-path="url(#clip0102)" style="stroke:#e26f46; stroke-width:4; stroke-opacity:1; fill:none" points="
  218.061,916.7 239.304,916.7 260.547,916.681 281.79,916.681 303.033,916.623 324.276,916.623 345.519,916.623 366.762,916.623 388.005,916.623 409.248,916.585 
  430.491,916.566 451.733,916.566 472.976,916.508 494.219,916.508 515.462,916.508 536.705,916.508 557.948,916.508 579.191,916.508 600.434,916.508 621.677,916.508 
  642.92,916.489 664.163,916.489 685.406,916.47 706.649,916.47 727.892,916.47 749.135,916.47 770.378,916.47 791.621,916.47 812.864,916.47 834.107,916.47 
  855.35,916.431 876.593,916.431 897.836,916.431 919.079,915.74 940.321,915.74 961.564,915.625 982.807,915.606 1004.05,915.567 1025.29,915.414 1046.54,915.298 
  1067.78,914.838 1089.02,914.453 1110.27,913.858 1131.51,912.552 1152.75,911.688 1173.99,909 1195.24,906.772 1216.48,905.524 1237.72,898.303 1258.97,892.12 
  1280.21,884.784 1301.45,874.875 1322.69,864.351 1343.94,849.526 1365.18,827.768 1386.42,793.413 1407.67,767.257 1428.91,654.071 1450.15,549.929 1471.4,427.237 
  1492.64,277.698 1513.88,74.6962 
  "/>
<polyline clip-path="url(#clip0102)" style="stroke:#3da44d; stroke-width:4; stroke-opacity:1; fill:none" points="
  218.061,942.904 239.304,942.904 260.547,942.904 281.79,942.904 303.033,942.904 324.276,942.904 345.519,942.904 366.762,942.904 388.005,942.904 409.248,942.885 
  430.491,942.885 451.733,942.885 472.976,942.885 494.219,942.885 515.462,942.885 536.705,942.885 557.948,942.875 579.191,942.875 600.434,942.875 621.677,942.875 
  642.92,942.875 664.163,942.875 685.406,942.875 706.649,942.875 727.892,942.875 749.135,942.875 770.378,942.875 791.621,942.875 812.864,942.875 834.107,942.875 
  855.35,942.71 876.593,942.302 897.836,941.4 919.079,940.681 940.321,939.778 961.564,938.507 982.807,936.546 1004.05,934.284 1025.29,931.954 1046.54,926.459 
  1067.78,923.139 1089.02,918.615 1110.27,912.916 1131.51,905.451 1152.75,897.898 1173.99,885.792 1195.24,871.308 1216.48,853.863 1237.72,844.378 1258.97,821.923 
  1280.21,821.923 1301.45,771.461 1322.69,737.513 1343.94,702.661 1365.18,671.275 1386.42,637.045 1407.67,596.203 1428.91,544.537 1450.15,486.425 1471.4,422.77 
  1492.64,368.794 1513.88,322.302 
  "/>
<polyline clip-path="url(#clip0102)" style="stroke:#c271d2; stroke-width:4; stroke-opacity:1; fill:none" points="
  218.061,928.034 239.304,928.034 260.547,928.034 281.79,928.034 303.033,928.034 324.276,928.034 345.519,928.034 366.762,928.034 388.005,928.034 409.248,928.034 
  430.491,928.013 451.733,928.013 472.976,928.013 494.219,928.013 515.462,928.013 536.705,928.013 557.948,928.013 579.191,928.013 600.434,927.993 621.677,927.993 
  642.92,927.993 664.163,927.993 685.406,927.993 706.649,927.993 727.892,927.993 749.135,927.993 770.378,927.993 791.621,927.993 812.864,927.993 834.107,927.993 
  855.35,927.993 876.593,927.993 897.836,927.993 919.079,927.993 940.321,927.911 961.564,927.767 982.807,927.726 1004.05,927.376 1025.29,927.109 1046.54,926.307 
  1067.78,925.567 1089.02,924.642 1110.27,923.47 1131.51,922.71 1152.75,919.811 1173.99,917.755 1195.24,914.199 1216.48,905.976 1237.72,893.189 1258.97,881.225 
  1280.21,881.225 1301.45,820.477 1322.69,796.651 1343.94,767.727 1365.18,723.652 1386.42,686.525 1407.67,642.08 1428.91,558.761 1450.15,508.457 1471.4,406.41 
  1492.64,336.638 1513.88,205.728 
  "/>
<polyline clip-path="url(#clip0102)" style="stroke:#ac8d18; stroke-width:4; stroke-opacity:1; fill:none" points="
  218.061,957.22 239.304,957.22 260.547,957.22 281.79,957.22 303.033,957.22 324.276,957.22 345.519,957.22 366.762,957.22 388.005,957.22 409.248,957.22 
  430.491,957.22 451.733,957.22 472.976,957.22 494.219,957.22 515.462,957.22 536.705,957.22 557.948,957.22 579.191,957.22 600.434,957.22 621.677,957.22 
  642.92,957.22 664.163,957.22 685.406,957.22 706.649,957.22 727.892,957.22 749.135,957.22 770.378,957.22 791.621,957.22 812.864,957.175 834.107,957.107 
  855.35,956.812 876.593,956.585 897.836,956.245 919.079,955.836 940.321,955.064 961.564,954.066 982.807,951.66 1004.05,948.415 1025.29,943.763 1046.54,935.026 
  1067.78,923.157 1089.02,904.208 1110.27,890.91 1131.51,877.498 1152.75,849.494 1173.99,825.076 1195.24,808.215 1216.48,794.712 1237.72,774.719 1258.97,752.979 
  1280.21,728.583 1301.45,699.331 1322.69,668.354 1343.94,640.918 1365.18,617.022 1386.42,590.289 1407.67,563.238 1428.91,539.501 1450.15,511.429 1471.4,489.507 
  1492.64,466.178 1513.88,434.157 
  "/>
<path clip-path="url(#clip0100)" d="
M275.186 541.644 L723.607 541.644 L723.607 178.764 L275.186 178.764  Z
  " fill="#ffffff" fill-rule="evenodd" fill-opacity="1"/>
<polyline clip-path="url(#clip0100)" style="stroke:#000000; stroke-width:4; stroke-opacity:1; fill:none" points="
  275.186,541.644 723.607,541.644 723.607,178.764 275.186,178.764 275.186,541.644 
  "/>
<polyline clip-path="url(#clip0100)" style="stroke:#009af9; stroke-width:4; stroke-opacity:1; fill:none" points="
  307.186,239.244 499.186,239.244 
  "/>
<g clip-path="url(#clip0100)">
<text style="fill:#000000; fill-opacity:1; font-family:Arial,Helvetica Neue,Helvetica,sans-serif; font-size:48px; text-anchor:start;" transform="rotate(0, 531.186, 256.744)" x="531.186" y="256.744">Korea</text>
</g>
<polyline clip-path="url(#clip0100)" style="stroke:#e26f46; stroke-width:4; stroke-opacity:1; fill:none" points="
  307.186,299.724 499.186,299.724 
  "/>
<g clip-path="url(#clip0100)">
<text style="fill:#000000; fill-opacity:1; font-family:Arial,Helvetica Neue,Helvetica,sans-serif; font-size:48px; text-anchor:start;" transform="rotate(0, 531.186, 317.224)" x="531.186" y="317.224">US</text>
</g>
<polyline clip-path="url(#clip0100)" style="stroke:#3da44d; stroke-width:4; stroke-opacity:1; fill:none" points="
  307.186,360.204 499.186,360.204 
  "/>
<g clip-path="url(#clip0100)">
<text style="fill:#000000; fill-opacity:1; font-family:Arial,Helvetica Neue,Helvetica,sans-serif; font-size:48px; text-anchor:start;" transform="rotate(0, 531.186, 377.704)" x="531.186" y="377.704">Italy</text>
</g>
<polyline clip-path="url(#clip0100)" style="stroke:#c271d2; stroke-width:4; stroke-opacity:1; fill:none" points="
  307.186,420.684 499.186,420.684 
  "/>
<g clip-path="url(#clip0100)">
<text style="fill:#000000; fill-opacity:1; font-family:Arial,Helvetica Neue,Helvetica,sans-serif; font-size:48px; text-anchor:start;" transform="rotate(0, 531.186, 438.184)" x="531.186" y="438.184">Spain</text>
</g>
<polyline clip-path="url(#clip0100)" style="stroke:#ac8d18; stroke-width:4; stroke-opacity:1; fill:none" points="
  307.186,481.164 499.186,481.164 
  "/>
<g clip-path="url(#clip0100)">
<text style="fill:#000000; fill-opacity:1; font-family:Arial,Helvetica Neue,Helvetica,sans-serif; font-size:48px; text-anchor:start;" transform="rotate(0, 531.186, 498.664)" x="531.186" y="498.664">Iran</text>
</g>
<path clip-path="url(#clip0100)" d="
M1779.19 1017.22 L3152.76 1017.22 L3152.76 47.2441 L1779.19 47.2441  Z
  " fill="#ffffff" fill-rule="evenodd" fill-opacity="1"/>
<defs>
  <clipPath id="clip0103">
    <rect x="1779" y="47" width="1375" height="971"/>
  </clipPath>
</defs>
<polyline clip-path="url(#clip0103)" style="stroke:#000000; stroke-width:2; stroke-opacity:0.1; fill:none" points="
  2030.49,1017.22 2030.49,47.2441 
  "/>
<polyline clip-path="url(#clip0103)" style="stroke:#000000; stroke-width:2; stroke-opacity:0.1; fill:none" points="
  2646.54,1017.22 2646.54,47.2441 
  "/>
<polyline clip-path="url(#clip0103)" style="stroke:#000000; stroke-width:2; stroke-opacity:0.1; fill:none" points="
  1779.19,875.332 3152.76,875.332 
  "/>
<polyline clip-path="url(#clip0103)" style="stroke:#000000; stroke-width:2; stroke-opacity:0.1; fill:none" points="
  1779.19,718.125 3152.76,718.125 
  "/>
<polyline clip-path="url(#clip0103)" style="stroke:#000000; stroke-width:2; stroke-opacity:0.1; fill:none" points="
  1779.19,560.919 3152.76,560.919 
  "/>
<polyline clip-path="url(#clip0103)" style="stroke:#000000; stroke-width:2; stroke-opacity:0.1; fill:none" points="
  1779.19,403.712 3152.76,403.712 
  "/>
<polyline clip-path="url(#clip0103)" style="stroke:#000000; stroke-width:2; stroke-opacity:0.1; fill:none" points="
  1779.19,246.505 3152.76,246.505 
  "/>
<polyline clip-path="url(#clip0103)" style="stroke:#000000; stroke-width:2; stroke-opacity:0.1; fill:none" points="
  1779.19,89.298 3152.76,89.298 
  "/>
<polyline clip-path="url(#clip0100)" style="stroke:#000000; stroke-width:4; stroke-opacity:1; fill:none" points="
  1779.19,1017.22 3152.76,1017.22 
  "/>
<polyline clip-path="url(#clip0100)" style="stroke:#000000; stroke-width:4; stroke-opacity:1; fill:none" points="
  1779.19,1017.22 1779.19,47.2441 
  "/>
<polyline clip-path="url(#clip0100)" style="stroke:#000000; stroke-width:4; stroke-opacity:1; fill:none" points="
  2030.49,1017.22 2030.49,1005.58 
  "/>
<polyline clip-path="url(#clip0100)" style="stroke:#000000; stroke-width:4; stroke-opacity:1; fill:none" points="
  2646.54,1017.22 2646.54,1005.58 
  "/>
<polyline clip-path="url(#clip0100)" style="stroke:#000000; stroke-width:4; stroke-opacity:1; fill:none" points="
  1779.19,875.332 1795.67,875.332 
  "/>
<polyline clip-path="url(#clip0100)" style="stroke:#000000; stroke-width:4; stroke-opacity:1; fill:none" points="
  1779.19,718.125 1795.67,718.125 
  "/>
<polyline clip-path="url(#clip0100)" style="stroke:#000000; stroke-width:4; stroke-opacity:1; fill:none" points="
  1779.19,560.919 1795.67,560.919 
  "/>
<polyline clip-path="url(#clip0100)" style="stroke:#000000; stroke-width:4; stroke-opacity:1; fill:none" points="
  1779.19,403.712 1795.67,403.712 
  "/>
<polyline clip-path="url(#clip0100)" style="stroke:#000000; stroke-width:4; stroke-opacity:1; fill:none" points="
  1779.19,246.505 1795.67,246.505 
  "/>
<polyline clip-path="url(#clip0100)" style="stroke:#000000; stroke-width:4; stroke-opacity:1; fill:none" points="
  1779.19,89.298 1795.67,89.298 
  "/>
<g clip-path="url(#clip0100)">
<text style="fill:#000000; fill-opacity:1; font-family:Arial,Helvetica Neue,Helvetica,sans-serif; font-size:48px; text-anchor:middle;" transform="rotate(0, 2030.49, 1075.22)" x="2030.49" y="1075.22">2020-02-01</text>
</g>
<g clip-path="url(#clip0100)">
<text style="fill:#000000; fill-opacity:1; font-family:Arial,Helvetica Neue,Helvetica,sans-serif; font-size:48px; text-anchor:middle;" transform="rotate(0, 2646.54, 1075.22)" x="2646.54" y="1075.22">2020-03-01</text>
</g>
<g clip-path="url(#clip0100)">
<text style="fill:#000000; fill-opacity:1; font-family:Arial,Helvetica Neue,Helvetica,sans-serif; font-size:48px; text-anchor:end;" transform="rotate(0, 1747.19, 892.832)" x="1747.19" y="892.832">0</text>
</g>
<g clip-path="url(#clip0100)">
<text style="fill:#000000; fill-opacity:1; font-family:Arial,Helvetica Neue,Helvetica,sans-serif; font-size:48px; text-anchor:end;" transform="rotate(0, 1747.19, 735.625)" x="1747.19" y="735.625">1</text>
</g>
<g clip-path="url(#clip0100)">
<text style="fill:#000000; fill-opacity:1; font-family:Arial,Helvetica Neue,Helvetica,sans-serif; font-size:48px; text-anchor:end;" transform="rotate(0, 1747.19, 578.419)" x="1747.19" y="578.419">2</text>
</g>
<g clip-path="url(#clip0100)">
<text style="fill:#000000; fill-opacity:1; font-family:Arial,Helvetica Neue,Helvetica,sans-serif; font-size:48px; text-anchor:end;" transform="rotate(0, 1747.19, 421.212)" x="1747.19" y="421.212">3</text>
</g>
<g clip-path="url(#clip0100)">
<text style="fill:#000000; fill-opacity:1; font-family:Arial,Helvetica Neue,Helvetica,sans-serif; font-size:48px; text-anchor:end;" transform="rotate(0, 1747.19, 264.005)" x="1747.19" y="264.005">4</text>
</g>
<g clip-path="url(#clip0100)">
<text style="fill:#000000; fill-opacity:1; font-family:Arial,Helvetica Neue,Helvetica,sans-serif; font-size:48px; text-anchor:end;" transform="rotate(0, 1747.19, 106.798)" x="1747.19" y="106.798">5</text>
</g>
<g clip-path="url(#clip0100)">
<text style="fill:#000000; fill-opacity:1; font-family:Arial,Helvetica Neue,Helvetica,sans-serif; font-size:66px; text-anchor:middle;" transform="rotate(0, 2465.97, 1159.08)" x="2465.97" y="1159.08">Date</text>
</g>
<g clip-path="url(#clip0100)">
<text style="fill:#000000; fill-opacity:1; font-family:Arial,Helvetica Neue,Helvetica,sans-serif; font-size:66px; text-anchor:middle;" transform="rotate(-90, 1676.86, 532.231)" x="1676.86" y="532.231">Standardized N.Deaths</text>
</g>
<polyline clip-path="url(#clip0103)" style="stroke:#009af9; stroke-width:4; stroke-opacity:1; fill:none" points="
  1818.06,989.765 1839.3,989.765 1860.55,989.765 1881.79,989.765 1903.03,989.765 1924.28,989.765 1945.52,989.765 1966.76,989.765 1988,989.765 2009.25,989.765 
  2030.49,989.765 2051.73,989.765 2072.98,989.765 2094.22,989.765 2115.46,989.765 2136.71,989.765 2157.95,989.765 2179.19,989.765 2200.43,989.765 2221.68,989.765 
  2242.92,989.765 2264.16,989.765 2285.41,989.765 2306.65,989.765 2327.89,989.765 2349.13,989.765 2370.38,989.765 2391.62,989.765 2412.86,989.765 2434.11,985.209 
  2455.35,980.652 2476.59,980.652 2497.84,962.425 2519.08,953.311 2540.32,944.198 2561.56,935.084 2582.81,930.528 2604.05,930.528 2625.29,916.857 2646.54,912.301 
  2667.78,862.176 2689.02,862.176 2710.27,830.279 2731.51,830.279 2752.75,798.382 2773.99,789.268 2795.24,761.928 2816.48,748.258 2837.72,743.701 2858.97,716.36 
  2880.21,689.02 2901.45,689.02 2922.69,661.679 2943.94,648.009 2965.18,648.009 2986.42,620.669 3007.67,606.998 3028.91,575.101 3050.15,561.431 3071.4,524.977 
  3092.64,483.966 3113.88,483.966 
  "/>
<polyline clip-path="url(#clip0103)" style="stroke:#e26f46; stroke-width:4; stroke-opacity:1; fill:none" points="
  1818.06,935.558 1839.3,935.558 1860.55,935.558 1881.79,935.558 1903.03,935.558 1924.28,935.558 1945.52,935.558 1966.76,935.558 1988,935.558 2009.25,935.558 
  2030.49,935.558 2051.73,935.558 2072.98,935.558 2094.22,935.558 2115.46,935.558 2136.71,935.558 2157.95,935.558 2179.19,935.558 2200.43,935.558 2221.68,935.558 
  2242.92,935.558 2264.16,935.558 2285.41,935.558 2306.65,935.558 2327.89,935.558 2349.13,935.558 2370.38,935.558 2391.62,935.558 2412.86,935.558 2434.11,935.558 
  2455.35,935.558 2476.59,935.558 2497.84,935.558 2519.08,935.558 2540.32,935.558 2561.56,935.558 2582.81,935.558 2604.05,935.558 2625.29,934.013 2646.54,934.013 
  2667.78,926.285 2689.02,924.739 2710.27,918.557 2731.51,917.012 2752.75,913.921 2773.99,909.284 2795.24,903.102 2816.48,901.556 2837.72,892.283 2858.97,879.919 
  2880.21,873.737 2901.45,862.918 2922.69,852.099 2943.94,838.19 2965.18,804.188 2986.42,768.641 3007.67,753.185 3028.91,626.452 3050.15,558.448 3071.4,461.079 
  3092.64,291.071 3113.88,74.6962 
  "/>
<polyline clip-path="url(#clip0103)" style="stroke:#3da44d; stroke-width:4; stroke-opacity:1; fill:none" points="
  1818.06,947.354 1839.3,947.354 1860.55,947.354 1881.79,947.354 1903.03,947.354 1924.28,947.354 1945.52,947.354 1966.76,947.354 1988,947.354 2009.25,947.354 
  2030.49,947.354 2051.73,947.354 2072.98,947.354 2094.22,947.354 2115.46,947.354 2136.71,947.354 2157.95,947.354 2179.19,947.354 2200.43,947.354 2221.68,947.354 
  2242.92,947.354 2264.16,947.354 2285.41,947.354 2306.65,947.354 2327.89,947.354 2349.13,947.354 2370.38,947.354 2391.62,947.354 2412.86,947.354 2434.11,947.354 
  2455.35,947.242 2476.59,947.131 2497.84,947.019 2519.08,946.573 2540.32,946.238 2561.56,946.015 2582.81,945.458 2604.05,945.011 2625.29,944.119 2646.54,943.561 
  2667.78,941.554 2689.02,938.543 2710.27,935.42 2731.51,930.847 2752.75,925.382 2773.99,921.366 2795.24,906.533 2816.48,895.714 2837.72,876.976 2858.97,855.116 
  2880.21,855.116 2901.45,806.153 2922.69,786.635 2943.94,745.591 2965.18,706.666 2986.42,668.187 3007.67,615.209 3028.91,567.584 3050.15,497.653 3071.4,409.208 
  3092.64,336.6 3113.88,269.569 
  "/>
<polyline clip-path="url(#clip0103)" style="stroke:#c271d2; stroke-width:4; stroke-opacity:1; fill:none" points="
  1818.06,931.523 1839.3,931.523 1860.55,931.523 1881.79,931.523 1903.03,931.523 1924.28,931.523 1945.52,931.523 1966.76,931.523 1988,931.523 2009.25,931.523 
  2030.49,931.523 2051.73,931.523 2072.98,931.523 2094.22,931.523 2115.46,931.523 2136.71,931.523 2157.95,931.523 2179.19,931.523 2200.43,931.523 2221.68,931.523 
  2242.92,931.523 2264.16,931.523 2285.41,931.523 2306.65,931.523 2327.89,931.523 2349.13,931.523 2370.38,931.523 2391.62,931.523 2412.86,931.523 2434.11,931.523 
  2455.35,931.523 2476.59,931.523 2497.84,931.523 2519.08,931.523 2540.32,931.523 2561.56,931.523 2582.81,931.523 2604.05,931.523 2625.29,931.523 2646.54,931.523 
  2667.78,931.523 2689.02,931.163 2710.27,930.802 2731.51,930.441 2752.75,929.719 2773.99,927.915 2795.24,925.39 2816.48,921.421 2837.72,918.896 2858.97,912.04 
  2880.21,911.68 2901.45,883.537 2922.69,861.168 2943.94,827.253 2965.18,808.131 2986.42,739.219 3007.67,706.747 3028.91,632.062 3050.15,555.212 3071.4,435.428 
  3092.64,292.191 3113.88,97.7219 
  "/>
<polyline clip-path="url(#clip0103)" style="stroke:#ac8d18; stroke-width:4; stroke-opacity:1; fill:none" points="
  1818.06,956.246 1839.3,956.246 1860.55,956.246 1881.79,956.246 1903.03,956.246 1924.28,956.246 1945.52,956.246 1966.76,956.246 1988,956.246 2009.25,956.246 
  2030.49,956.246 2051.73,956.246 2072.98,956.246 2094.22,956.246 2115.46,956.246 2136.71,956.246 2157.95,956.246 2179.19,956.246 2200.43,956.246 2221.68,956.246 
  2242.92,956.246 2264.16,956.246 2285.41,956.246 2306.65,956.246 2327.89,956.246 2349.13,956.246 2370.38,956.246 2391.62,956.246 2412.86,955.574 2434.11,955.574 
  2455.35,954.902 2476.59,954.567 2497.84,953.559 2519.08,952.215 2540.32,950.872 2561.56,949.864 2582.81,947.513 2604.05,944.826 2625.29,941.803 2646.54,938.109 
  2667.78,934.078 2689.02,930.383 2710.27,925.345 2731.51,920.307 2752.75,914.597 2773.99,907.544 2795.24,891.086 2816.48,876.643 2837.72,858.506 2858.97,837.346 
  2880.21,812.155 2901.45,783.605 2922.69,751.025 2943.94,713.071 2965.18,669.743 2986.42,624.4 3007.67,575.026 3028.91,524.981 3050.15,474.935 3071.4,433.622 
  3092.64,390.294 3113.88,347.638 
  "/>
<path clip-path="url(#clip0100)" d="
M1875.19 541.644 L2323.61 541.644 L2323.61 178.764 L1875.19 178.764  Z
  " fill="#ffffff" fill-rule="evenodd" fill-opacity="1"/>
<polyline clip-path="url(#clip0100)" style="stroke:#000000; stroke-width:4; stroke-opacity:1; fill:none" points="
  1875.19,541.644 2323.61,541.644 2323.61,178.764 1875.19,178.764 1875.19,541.644 
  "/>
<polyline clip-path="url(#clip0100)" style="stroke:#009af9; stroke-width:4; stroke-opacity:1; fill:none" points="
  1907.19,239.244 2099.19,239.244 
  "/>
<g clip-path="url(#clip0100)">
<text style="fill:#000000; fill-opacity:1; font-family:Arial,Helvetica Neue,Helvetica,sans-serif; font-size:48px; text-anchor:start;" transform="rotate(0, 2131.19, 256.744)" x="2131.19" y="256.744">Korea</text>
</g>
<polyline clip-path="url(#clip0100)" style="stroke:#e26f46; stroke-width:4; stroke-opacity:1; fill:none" points="
  1907.19,299.724 2099.19,299.724 
  "/>
<g clip-path="url(#clip0100)">
<text style="fill:#000000; fill-opacity:1; font-family:Arial,Helvetica Neue,Helvetica,sans-serif; font-size:48px; text-anchor:start;" transform="rotate(0, 2131.19, 317.224)" x="2131.19" y="317.224">US</text>
</g>
<polyline clip-path="url(#clip0100)" style="stroke:#3da44d; stroke-width:4; stroke-opacity:1; fill:none" points="
  1907.19,360.204 2099.19,360.204 
  "/>
<g clip-path="url(#clip0100)">
<text style="fill:#000000; fill-opacity:1; font-family:Arial,Helvetica Neue,Helvetica,sans-serif; font-size:48px; text-anchor:start;" transform="rotate(0, 2131.19, 377.704)" x="2131.19" y="377.704">Italy</text>
</g>
<polyline clip-path="url(#clip0100)" style="stroke:#c271d2; stroke-width:4; stroke-opacity:1; fill:none" points="
  1907.19,420.684 2099.19,420.684 
  "/>
<g clip-path="url(#clip0100)">
<text style="fill:#000000; fill-opacity:1; font-family:Arial,Helvetica Neue,Helvetica,sans-serif; font-size:48px; text-anchor:start;" transform="rotate(0, 2131.19, 438.184)" x="2131.19" y="438.184">Spain</text>
</g>
<polyline clip-path="url(#clip0100)" style="stroke:#ac8d18; stroke-width:4; stroke-opacity:1; fill:none" points="
  1907.19,481.164 2099.19,481.164 
  "/>
<g clip-path="url(#clip0100)">
<text style="fill:#000000; fill-opacity:1; font-family:Arial,Helvetica Neue,Helvetica,sans-serif; font-size:48px; text-anchor:start;" transform="rotate(0, 2131.19, 498.664)" x="2131.19" y="498.664">Iran</text>
</g>
</svg>
