<?xml version="1.0" encoding="utf-8"?>
<svg xmlns="http://www.w3.org/2000/svg" xmlns:xlink="http://www.w3.org/1999/xlink" width="800" height="300" viewBox="0 0 3200 1200">
<defs>
  <clipPath id="clip8900">
    <rect x="0" y="0" width="3200" height="1200"/>
  </clipPath>
</defs>
<path clip-path="url(#clip8900)" d="
M0 1200 L3200 1200 L3200 0 L0 0  Z
  " fill="#ffffff" fill-rule="evenodd" fill-opacity="1"/>
<defs>
  <clipPath id="clip8901">
    <rect x="640" y="0" width="2241" height="1200"/>
  </clipPath>
</defs>
<path clip-path="url(#clip8900)" d="
M326.62 1017.22 L1559.45 1017.22 L1559.45 96.0013 L326.62 96.0013  Z
  " fill="#ffffff" fill-rule="evenodd" fill-opacity="1"/>
<defs>
  <clipPath id="clip8902">
    <rect x="326" y="96" width="1234" height="922"/>
  </clipPath>
</defs>
<polyline clip-path="url(#clip8902)" style="stroke:#000000; stroke-width:2; stroke-opacity:0.1; fill:none" points="
  361.511,1017.22 361.511,96.0013 
  "/>
<polyline clip-path="url(#clip8902)" style="stroke:#000000; stroke-width:2; stroke-opacity:0.1; fill:none" points="
  552.174,1017.22 552.174,96.0013 
  "/>
<polyline clip-path="url(#clip8902)" style="stroke:#000000; stroke-width:2; stroke-opacity:0.1; fill:none" points="
  742.837,1017.22 742.837,96.0013 
  "/>
<polyline clip-path="url(#clip8902)" style="stroke:#000000; stroke-width:2; stroke-opacity:0.1; fill:none" points="
  933.5,1017.22 933.5,96.0013 
  "/>
<polyline clip-path="url(#clip8902)" style="stroke:#000000; stroke-width:2; stroke-opacity:0.1; fill:none" points="
  1124.16,1017.22 1124.16,96.0013 
  "/>
<polyline clip-path="url(#clip8902)" style="stroke:#000000; stroke-width:2; stroke-opacity:0.1; fill:none" points="
  1314.83,1017.22 1314.83,96.0013 
  "/>
<polyline clip-path="url(#clip8902)" style="stroke:#000000; stroke-width:2; stroke-opacity:0.1; fill:none" points="
  1505.49,1017.22 1505.49,96.0013 
  "/>
<polyline clip-path="url(#clip8902)" style="stroke:#000000; stroke-width:2; stroke-opacity:0.1; fill:none" points="
  326.62,991.147 1559.45,991.147 
  "/>
<polyline clip-path="url(#clip8902)" style="stroke:#000000; stroke-width:2; stroke-opacity:0.1; fill:none" points="
  326.62,818.282 1559.45,818.282 
  "/>
<polyline clip-path="url(#clip8902)" style="stroke:#000000; stroke-width:2; stroke-opacity:0.1; fill:none" points="
  326.62,645.418 1559.45,645.418 
  "/>
<polyline clip-path="url(#clip8902)" style="stroke:#000000; stroke-width:2; stroke-opacity:0.1; fill:none" points="
  326.62,472.553 1559.45,472.553 
  "/>
<polyline clip-path="url(#clip8902)" style="stroke:#000000; stroke-width:2; stroke-opacity:0.1; fill:none" points="
  326.62,299.688 1559.45,299.688 
  "/>
<polyline clip-path="url(#clip8902)" style="stroke:#000000; stroke-width:2; stroke-opacity:0.1; fill:none" points="
  326.62,126.824 1559.45,126.824 
  "/>
<polyline clip-path="url(#clip8900)" style="stroke:#000000; stroke-width:4; stroke-opacity:1; fill:none" points="
  326.62,1017.22 1559.45,1017.22 
  "/>
<polyline clip-path="url(#clip8900)" style="stroke:#000000; stroke-width:4; stroke-opacity:1; fill:none" points="
  326.62,1017.22 326.62,96.0013 
  "/>
<polyline clip-path="url(#clip8900)" style="stroke:#000000; stroke-width:4; stroke-opacity:1; fill:none" points="
  361.511,1017.22 361.511,1006.16 
  "/>
<polyline clip-path="url(#clip8900)" style="stroke:#000000; stroke-width:4; stroke-opacity:1; fill:none" points="
  552.174,1017.22 552.174,1006.16 
  "/>
<polyline clip-path="url(#clip8900)" style="stroke:#000000; stroke-width:4; stroke-opacity:1; fill:none" points="
  742.837,1017.22 742.837,1006.16 
  "/>
<polyline clip-path="url(#clip8900)" style="stroke:#000000; stroke-width:4; stroke-opacity:1; fill:none" points="
  933.5,1017.22 933.5,1006.16 
  "/>
<polyline clip-path="url(#clip8900)" style="stroke:#000000; stroke-width:4; stroke-opacity:1; fill:none" points="
  1124.16,1017.22 1124.16,1006.16 
  "/>
<polyline clip-path="url(#clip8900)" style="stroke:#000000; stroke-width:4; stroke-opacity:1; fill:none" points="
  1314.83,1017.22 1314.83,1006.16 
  "/>
<polyline clip-path="url(#clip8900)" style="stroke:#000000; stroke-width:4; stroke-opacity:1; fill:none" points="
  1505.49,1017.22 1505.49,1006.16 
  "/>
<polyline clip-path="url(#clip8900)" style="stroke:#000000; stroke-width:4; stroke-opacity:1; fill:none" points="
  326.62,991.147 341.414,991.147 
  "/>
<polyline clip-path="url(#clip8900)" style="stroke:#000000; stroke-width:4; stroke-opacity:1; fill:none" points="
  326.62,818.282 341.414,818.282 
  "/>
<polyline clip-path="url(#clip8900)" style="stroke:#000000; stroke-width:4; stroke-opacity:1; fill:none" points="
  326.62,645.418 341.414,645.418 
  "/>
<polyline clip-path="url(#clip8900)" style="stroke:#000000; stroke-width:4; stroke-opacity:1; fill:none" points="
  326.62,472.553 341.414,472.553 
  "/>
<polyline clip-path="url(#clip8900)" style="stroke:#000000; stroke-width:4; stroke-opacity:1; fill:none" points="
  326.62,299.688 341.414,299.688 
  "/>
<polyline clip-path="url(#clip8900)" style="stroke:#000000; stroke-width:4; stroke-opacity:1; fill:none" points="
  326.62,126.824 341.414,126.824 
  "/>
<g clip-path="url(#clip8900)">
<text style="fill:#000000; fill-opacity:1; font-family:Arial,Helvetica Neue,Helvetica,sans-serif; font-size:48px; text-anchor:middle;" transform="rotate(0, 361.511, 1075.22)" x="361.511" y="1075.22">0</text>
</g>
<g clip-path="url(#clip8900)">
<text style="fill:#000000; fill-opacity:1; font-family:Arial,Helvetica Neue,Helvetica,sans-serif; font-size:48px; text-anchor:middle;" transform="rotate(0, 552.174, 1075.22)" x="552.174" y="1075.22">10</text>
</g>
<g clip-path="url(#clip8900)">
<text style="fill:#000000; fill-opacity:1; font-family:Arial,Helvetica Neue,Helvetica,sans-serif; font-size:48px; text-anchor:middle;" transform="rotate(0, 742.837, 1075.22)" x="742.837" y="1075.22">20</text>
</g>
<g clip-path="url(#clip8900)">
<text style="fill:#000000; fill-opacity:1; font-family:Arial,Helvetica Neue,Helvetica,sans-serif; font-size:48px; text-anchor:middle;" transform="rotate(0, 933.5, 1075.22)" x="933.5" y="1075.22">30</text>
</g>
<g clip-path="url(#clip8900)">
<text style="fill:#000000; fill-opacity:1; font-family:Arial,Helvetica Neue,Helvetica,sans-serif; font-size:48px; text-anchor:middle;" transform="rotate(0, 1124.16, 1075.22)" x="1124.16" y="1075.22">40</text>
</g>
<g clip-path="url(#clip8900)">
<text style="fill:#000000; fill-opacity:1; font-family:Arial,Helvetica Neue,Helvetica,sans-serif; font-size:48px; text-anchor:middle;" transform="rotate(0, 1314.83, 1075.22)" x="1314.83" y="1075.22">50</text>
</g>
<g clip-path="url(#clip8900)">
<text style="fill:#000000; fill-opacity:1; font-family:Arial,Helvetica Neue,Helvetica,sans-serif; font-size:48px; text-anchor:middle;" transform="rotate(0, 1505.49, 1075.22)" x="1505.49" y="1075.22">60</text>
</g>
<g clip-path="url(#clip8900)">
<text style="fill:#000000; fill-opacity:1; font-family:Arial,Helvetica Neue,Helvetica,sans-serif; font-size:48px; text-anchor:end;" transform="rotate(0, 294.62, 1008.65)" x="294.62" y="1008.65">0</text>
</g>
<g clip-path="url(#clip8900)">
<text style="fill:#000000; fill-opacity:1; font-family:Arial,Helvetica Neue,Helvetica,sans-serif; font-size:48px; text-anchor:start;" transform="rotate(0, 164.478, 842.01)" x="164.478" y="842.01">1×10</text>
</g>
<g clip-path="url(#clip8900)">
<text style="fill:#000000; fill-opacity:1; font-family:Arial,Helvetica Neue,Helvetica,sans-serif; font-size:38px; text-anchor:start;" transform="rotate(0, 272.875, 814.6)" x="272.875" y="814.6">5</text>
</g>
<g clip-path="url(#clip8900)">
<text style="fill:#000000; fill-opacity:1; font-family:Arial,Helvetica Neue,Helvetica,sans-serif; font-size:48px; text-anchor:start;" transform="rotate(0, 164.478, 669.145)" x="164.478" y="669.145">2×10</text>
</g>
<g clip-path="url(#clip8900)">
<text style="fill:#000000; fill-opacity:1; font-family:Arial,Helvetica Neue,Helvetica,sans-serif; font-size:38px; text-anchor:start;" transform="rotate(0, 272.875, 641.735)" x="272.875" y="641.735">5</text>
</g>
<g clip-path="url(#clip8900)">
<text style="fill:#000000; fill-opacity:1; font-family:Arial,Helvetica Neue,Helvetica,sans-serif; font-size:48px; text-anchor:start;" transform="rotate(0, 164.478, 496.281)" x="164.478" y="496.281">3×10</text>
</g>
<g clip-path="url(#clip8900)">
<text style="fill:#000000; fill-opacity:1; font-family:Arial,Helvetica Neue,Helvetica,sans-serif; font-size:38px; text-anchor:start;" transform="rotate(0, 272.875, 468.87)" x="272.875" y="468.87">5</text>
</g>
<g clip-path="url(#clip8900)">
<text style="fill:#000000; fill-opacity:1; font-family:Arial,Helvetica Neue,Helvetica,sans-serif; font-size:48px; text-anchor:start;" transform="rotate(0, 164.478, 323.416)" x="164.478" y="323.416">4×10</text>
</g>
<g clip-path="url(#clip8900)">
<text style="fill:#000000; fill-opacity:1; font-family:Arial,Helvetica Neue,Helvetica,sans-serif; font-size:38px; text-anchor:start;" transform="rotate(0, 272.875, 296.006)" x="272.875" y="296.006">5</text>
</g>
<g clip-path="url(#clip8900)">
<text style="fill:#000000; fill-opacity:1; font-family:Arial,Helvetica Neue,Helvetica,sans-serif; font-size:48px; text-anchor:start;" transform="rotate(0, 164.478, 150.551)" x="164.478" y="150.551">5×10</text>
</g>
<g clip-path="url(#clip8900)">
<text style="fill:#000000; fill-opacity:1; font-family:Arial,Helvetica Neue,Helvetica,sans-serif; font-size:38px; text-anchor:start;" transform="rotate(0, 272.875, 123.141)" x="272.875" y="123.141">5</text>
</g>
<g clip-path="url(#clip8900)">
<text style="fill:#000000; fill-opacity:1; font-family:Arial,Helvetica Neue,Helvetica,sans-serif; font-size:82px; text-anchor:middle;" transform="rotate(0, 943.033, 72)" x="943.033" y="72">Day0 = After 0 Confirmed Cases</text>
</g>
<g clip-path="url(#clip8900)">
<text style="fill:#000000; fill-opacity:1; font-family:Arial,Helvetica Neue,Helvetica,sans-serif; font-size:66px; text-anchor:middle;" transform="rotate(0, 943.033, 1159.08)" x="943.033" y="1159.08">Days</text>
</g>
<g clip-path="url(#clip8900)">
<text style="fill:#000000; fill-opacity:1; font-family:Arial,Helvetica Neue,Helvetica,sans-serif; font-size:66px; text-anchor:middle;" transform="rotate(-90, 76.8619, 556.609)" x="76.8619" y="556.609">CumSum N.Confirmed</text>
</g>
<polyline clip-path="url(#clip8902)" style="stroke:#009af9; stroke-width:4; stroke-opacity:1; fill:none" points="
  361.511,991.145 380.577,991.144 399.644,991.14 418.71,991.137 437.776,991.132 456.843,991.125 475.909,991.118 494.975,991.111 514.042,991.104 533.108,991.085 
  552.174,991.064 571.24,991.038 590.307,991.012 609.373,990.985 628.439,990.952 647.506,990.912 666.572,990.871 685.638,990.829 704.704,990.786 723.771,990.739 
  742.837,990.691 761.903,990.642 780.97,990.594 800.036,990.546 819.102,990.497 838.169,990.447 857.235,990.395 876.301,990.342 895.367,990.288 914.434,990.108 
  933.5,989.756 952.566,989.007 971.633,987.966 990.699,986.526 1009.77,984.838 1028.83,982.658 1047.9,979.605 1066.96,975.565 1086.03,970.12 1105.1,963.662 
  1124.16,956.168 1143.23,947.203 1162.3,937.486 1181.36,926.962 1200.43,915.566 1219.49,903.394 1238.56,890.751 1257.63,877.824 1276.69,864.837 1295.76,851.431 
  1314.83,837.828 1333.89,824.035 1352.96,810.058 1372.02,795.948 1391.09,781.711 1410.16,767.329 1429.22,752.786 1448.29,737.98 1467.36,723.024 1486.42,707.813 
  1505.49,692.323 1524.56,676.832 
  "/>
<polyline clip-path="url(#clip8902)" style="stroke:#e26f46; stroke-width:4; stroke-opacity:1; fill:none" points="
  361.511,991.145 380.577,991.144 399.644,991.14 418.71,991.137 437.776,991.128 456.843,991.119 475.909,991.111 494.975,991.102 514.042,991.094 533.108,991.081 
  552.174,991.068 571.24,991.054 590.307,991.035 609.373,991.016 628.439,990.997 647.506,990.978 666.572,990.959 685.638,990.94 704.704,990.921 723.771,990.902 
  742.837,990.881 761.903,990.86 780.97,990.838 800.036,990.815 819.102,990.793 838.169,990.77 857.235,990.748 876.301,990.725 895.367,990.703 914.434,990.68 
  933.5,990.654 952.566,990.629 971.633,990.603 990.699,990.514 1009.77,990.426 1028.83,990.328 1047.9,990.227 1066.96,990.124 1086.03,990.006 1105.1,989.878 
  1124.16,989.709 1143.23,989.505 1162.3,989.247 1181.36,988.872 1200.43,988.419 1219.49,987.724 1238.56,986.829 1257.63,985.821 1276.69,984.163 1295.76,981.949 
  1314.83,979.074 1333.89,975.308 1352.96,970.594 1372.02,964.545 1391.09,956.538 1410.16,945.438 1429.22,931.984 1448.29,908.341 1467.36,875.324 1486.42,831.263 
  1505.49,773.74 1524.56,697.944 
  "/>
<polyline clip-path="url(#clip8902)" style="stroke:#3da44d; stroke-width:4; stroke-opacity:1; fill:none" points="
  361.511,991.144 380.577,991.14 399.644,991.137 418.71,991.133 437.776,991.13 456.843,991.126 475.909,991.123 494.975,991.118 514.042,991.113 533.108,991.107 
  552.174,991.102 571.24,991.097 590.307,991.092 609.373,991.087 628.439,991.081 647.506,991.076 666.572,991.071 685.638,991.066 704.704,991.061 723.771,991.056 
  742.837,991.05 761.903,991.016 780.97,990.909 800.036,990.641 819.102,990.245 838.169,989.688 857.235,988.905 876.301,987.773 895.367,986.238 914.434,984.288 
  933.5,981.36 952.566,977.84 971.633,973.515 990.699,968.175 1009.77,961.506 1028.83,953.492 1047.9,943.322 1066.96,930.574 1086.03,914.718 1105.1,897.174 
  1124.16,875.632 1143.23,854.09 1162.3,823.562 1181.36,786.989 1200.43,744.21 1219.49,695.842 1238.56,641.38 1257.63,579.645 1276.69,508.71 1295.76,427.427 
  1314.83,334.809 1333.89,232.581 1352.96,122.073 
  "/>
<polyline clip-path="url(#clip8902)" style="stroke:#c271d2; stroke-width:4; stroke-opacity:1; fill:none" points="
  361.511,991.145 380.577,991.144 399.644,991.142 418.71,991.14 437.776,991.138 456.843,991.137 475.909,991.135 494.975,991.133 514.042,991.13 533.108,991.126 
  552.174,991.123 571.24,991.119 590.307,991.116 609.373,991.113 628.439,991.109 647.506,991.106 666.572,991.102 685.638,991.099 704.704,991.095 723.771,991.092 
  742.837,991.088 761.903,991.085 780.97,991.081 800.036,991.078 819.102,991.068 838.169,991.045 857.235,991.019 876.301,990.964 895.367,990.886 914.434,990.741 
  933.5,990.533 952.566,990.248 971.633,989.864 990.699,989.417 1009.77,988.725 1028.83,987.861 1047.9,986.698 1066.96,984.843 1086.03,981.913 1105.1,977.977 
  1124.16,974.04 1143.23,964.996 1162.3,953.948 1181.36,940.468 1200.43,923.282 1219.49,902.974 1238.56,878.929 1257.63,847.877 1276.69,812.595 1295.76,768.733 
  1314.83,719.003 1333.89,658.265 
  "/>
<polyline clip-path="url(#clip8902)" style="stroke:#ac8d18; stroke-width:4; stroke-opacity:1; fill:none" points="
  361.511,991.144 380.577,991.135 399.644,991.104 418.71,991.056 437.776,990.981 456.843,990.876 475.909,990.712 494.975,990.471 514.042,990.048 533.108,989.377 
  552.174,988.352 571.24,986.661 590.307,984.067 609.373,980.028 628.439,974.977 647.506,968.905 666.572,960.699 685.638,950.633 704.704,939.283 723.771,926.904 
  742.837,913.002 761.903,897.444 780.97,880.028 800.036,860.384 819.102,838.38 838.169,814.286 857.235,788.372 876.301,760.421 895.367,730.41 914.434,698.591 
  933.5,664.633 952.566,629.006 971.633,591.602 990.699,551.758 
  "/>
<path clip-path="url(#clip8900)" d="
M422.62 590.401 L871.041 590.401 L871.041 227.521 L422.62 227.521  Z
  " fill="#ffffff" fill-rule="evenodd" fill-opacity="1"/>
<polyline clip-path="url(#clip8900)" style="stroke:#000000; stroke-width:4; stroke-opacity:1; fill:none" points="
  422.62,590.401 871.041,590.401 871.041,227.521 422.62,227.521 422.62,590.401 
  "/>
<polyline clip-path="url(#clip8900)" style="stroke:#009af9; stroke-width:4; stroke-opacity:1; fill:none" points="
  454.62,288.001 646.62,288.001 
  "/>
<g clip-path="url(#clip8900)">
<text style="fill:#000000; fill-opacity:1; font-family:Arial,Helvetica Neue,Helvetica,sans-serif; font-size:48px; text-anchor:start;" transform="rotate(0, 678.62, 305.501)" x="678.62" y="305.501">Korea</text>
</g>
<polyline clip-path="url(#clip8900)" style="stroke:#e26f46; stroke-width:4; stroke-opacity:1; fill:none" points="
  454.62,348.481 646.62,348.481 
  "/>
<g clip-path="url(#clip8900)">
<text style="fill:#000000; fill-opacity:1; font-family:Arial,Helvetica Neue,Helvetica,sans-serif; font-size:48px; text-anchor:start;" transform="rotate(0, 678.62, 365.981)" x="678.62" y="365.981">US</text>
</g>
<polyline clip-path="url(#clip8900)" style="stroke:#3da44d; stroke-width:4; stroke-opacity:1; fill:none" points="
  454.62,408.961 646.62,408.961 
  "/>
<g clip-path="url(#clip8900)">
<text style="fill:#000000; fill-opacity:1; font-family:Arial,Helvetica Neue,Helvetica,sans-serif; font-size:48px; text-anchor:start;" transform="rotate(0, 678.62, 426.461)" x="678.62" y="426.461">Italy</text>
</g>
<polyline clip-path="url(#clip8900)" style="stroke:#c271d2; stroke-width:4; stroke-opacity:1; fill:none" points="
  454.62,469.441 646.62,469.441 
  "/>
<g clip-path="url(#clip8900)">
<text style="fill:#000000; fill-opacity:1; font-family:Arial,Helvetica Neue,Helvetica,sans-serif; font-size:48px; text-anchor:start;" transform="rotate(0, 678.62, 486.941)" x="678.62" y="486.941">Spain</text>
</g>
<polyline clip-path="url(#clip8900)" style="stroke:#ac8d18; stroke-width:4; stroke-opacity:1; fill:none" points="
  454.62,529.921 646.62,529.921 
  "/>
<g clip-path="url(#clip8900)">
<text style="fill:#000000; fill-opacity:1; font-family:Arial,Helvetica Neue,Helvetica,sans-serif; font-size:48px; text-anchor:start;" transform="rotate(0, 678.62, 547.421)" x="678.62" y="547.421">Iran</text>
</g>
<path clip-path="url(#clip8900)" d="
M1919.93 1017.22 L3152.76 1017.22 L3152.76 96.0013 L1919.93 96.0013  Z
  " fill="#ffffff" fill-rule="evenodd" fill-opacity="1"/>
<defs>
  <clipPath id="clip8903">
    <rect x="1919" y="96" width="1234" height="922"/>
  </clipPath>
</defs>
<polyline clip-path="url(#clip8903)" style="stroke:#000000; stroke-width:2; stroke-opacity:0.1; fill:none" points="
  1954.82,1017.22 1954.82,96.0013 
  "/>
<polyline clip-path="url(#clip8903)" style="stroke:#000000; stroke-width:2; stroke-opacity:0.1; fill:none" points="
  2307.26,1017.22 2307.26,96.0013 
  "/>
<polyline clip-path="url(#clip8903)" style="stroke:#000000; stroke-width:2; stroke-opacity:0.1; fill:none" points="
  2659.7,1017.22 2659.7,96.0013 
  "/>
<polyline clip-path="url(#clip8903)" style="stroke:#000000; stroke-width:2; stroke-opacity:0.1; fill:none" points="
  3012.13,1017.22 3012.13,96.0013 
  "/>
<polyline clip-path="url(#clip8903)" style="stroke:#000000; stroke-width:2; stroke-opacity:0.1; fill:none" points="
  1919.93,991.167 3152.76,991.167 
  "/>
<polyline clip-path="url(#clip8903)" style="stroke:#000000; stroke-width:2; stroke-opacity:0.1; fill:none" points="
  1919.93,774.089 3152.76,774.089 
  "/>
<polyline clip-path="url(#clip8903)" style="stroke:#000000; stroke-width:2; stroke-opacity:0.1; fill:none" points="
  1919.93,557.011 3152.76,557.011 
  "/>
<polyline clip-path="url(#clip8903)" style="stroke:#000000; stroke-width:2; stroke-opacity:0.1; fill:none" points="
  1919.93,339.933 3152.76,339.933 
  "/>
<polyline clip-path="url(#clip8903)" style="stroke:#000000; stroke-width:2; stroke-opacity:0.1; fill:none" points="
  1919.93,122.855 3152.76,122.855 
  "/>
<polyline clip-path="url(#clip8900)" style="stroke:#000000; stroke-width:4; stroke-opacity:1; fill:none" points="
  1919.93,1017.22 3152.76,1017.22 
  "/>
<polyline clip-path="url(#clip8900)" style="stroke:#000000; stroke-width:4; stroke-opacity:1; fill:none" points="
  1919.93,1017.22 1919.93,96.0013 
  "/>
<polyline clip-path="url(#clip8900)" style="stroke:#000000; stroke-width:4; stroke-opacity:1; fill:none" points="
  1954.82,1017.22 1954.82,1006.16 
  "/>
<polyline clip-path="url(#clip8900)" style="stroke:#000000; stroke-width:4; stroke-opacity:1; fill:none" points="
  2307.26,1017.22 2307.26,1006.16 
  "/>
<polyline clip-path="url(#clip8900)" style="stroke:#000000; stroke-width:4; stroke-opacity:1; fill:none" points="
  2659.7,1017.22 2659.7,1006.16 
  "/>
<polyline clip-path="url(#clip8900)" style="stroke:#000000; stroke-width:4; stroke-opacity:1; fill:none" points="
  3012.13,1017.22 3012.13,1006.16 
  "/>
<polyline clip-path="url(#clip8900)" style="stroke:#000000; stroke-width:4; stroke-opacity:1; fill:none" points="
  1919.93,991.167 1934.72,991.167 
  "/>
<polyline clip-path="url(#clip8900)" style="stroke:#000000; stroke-width:4; stroke-opacity:1; fill:none" points="
  1919.93,774.089 1934.72,774.089 
  "/>
<polyline clip-path="url(#clip8900)" style="stroke:#000000; stroke-width:4; stroke-opacity:1; fill:none" points="
  1919.93,557.011 1934.72,557.011 
  "/>
<polyline clip-path="url(#clip8900)" style="stroke:#000000; stroke-width:4; stroke-opacity:1; fill:none" points="
  1919.93,339.933 1934.72,339.933 
  "/>
<polyline clip-path="url(#clip8900)" style="stroke:#000000; stroke-width:4; stroke-opacity:1; fill:none" points="
  1919.93,122.855 1934.72,122.855 
  "/>
<g clip-path="url(#clip8900)">
<text style="fill:#000000; fill-opacity:1; font-family:Arial,Helvetica Neue,Helvetica,sans-serif; font-size:48px; text-anchor:middle;" transform="rotate(0, 1954.82, 1075.22)" x="1954.82" y="1075.22">0</text>
</g>
<g clip-path="url(#clip8900)">
<text style="fill:#000000; fill-opacity:1; font-family:Arial,Helvetica Neue,Helvetica,sans-serif; font-size:48px; text-anchor:middle;" transform="rotate(0, 2307.26, 1075.22)" x="2307.26" y="1075.22">10</text>
</g>
<g clip-path="url(#clip8900)">
<text style="fill:#000000; fill-opacity:1; font-family:Arial,Helvetica Neue,Helvetica,sans-serif; font-size:48px; text-anchor:middle;" transform="rotate(0, 2659.7, 1075.22)" x="2659.7" y="1075.22">20</text>
</g>
<g clip-path="url(#clip8900)">
<text style="fill:#000000; fill-opacity:1; font-family:Arial,Helvetica Neue,Helvetica,sans-serif; font-size:48px; text-anchor:middle;" transform="rotate(0, 3012.13, 1075.22)" x="3012.13" y="1075.22">30</text>
</g>
<g clip-path="url(#clip8900)">
<text style="fill:#000000; fill-opacity:1; font-family:Arial,Helvetica Neue,Helvetica,sans-serif; font-size:48px; text-anchor:end;" transform="rotate(0, 1887.93, 1008.67)" x="1887.93" y="1008.67">0</text>
</g>
<g clip-path="url(#clip8900)">
<text style="fill:#000000; fill-opacity:1; font-family:Arial,Helvetica Neue,Helvetica,sans-serif; font-size:48px; text-anchor:start;" transform="rotate(0, 1757.79, 797.817)" x="1757.79" y="797.817">1×10</text>
</g>
<g clip-path="url(#clip8900)">
<text style="fill:#000000; fill-opacity:1; font-family:Arial,Helvetica Neue,Helvetica,sans-serif; font-size:38px; text-anchor:start;" transform="rotate(0, 1866.18, 770.406)" x="1866.18" y="770.406">4</text>
</g>
<g clip-path="url(#clip8900)">
<text style="fill:#000000; fill-opacity:1; font-family:Arial,Helvetica Neue,Helvetica,sans-serif; font-size:48px; text-anchor:start;" transform="rotate(0, 1757.79, 580.739)" x="1757.79" y="580.739">2×10</text>
</g>
<g clip-path="url(#clip8900)">
<text style="fill:#000000; fill-opacity:1; font-family:Arial,Helvetica Neue,Helvetica,sans-serif; font-size:38px; text-anchor:start;" transform="rotate(0, 1866.18, 553.328)" x="1866.18" y="553.328">4</text>
</g>
<g clip-path="url(#clip8900)">
<text style="fill:#000000; fill-opacity:1; font-family:Arial,Helvetica Neue,Helvetica,sans-serif; font-size:48px; text-anchor:start;" transform="rotate(0, 1757.79, 363.661)" x="1757.79" y="363.661">3×10</text>
</g>
<g clip-path="url(#clip8900)">
<text style="fill:#000000; fill-opacity:1; font-family:Arial,Helvetica Neue,Helvetica,sans-serif; font-size:38px; text-anchor:start;" transform="rotate(0, 1866.18, 336.25)" x="1866.18" y="336.25">4</text>
</g>
<g clip-path="url(#clip8900)">
<text style="fill:#000000; fill-opacity:1; font-family:Arial,Helvetica Neue,Helvetica,sans-serif; font-size:48px; text-anchor:start;" transform="rotate(0, 1757.79, 146.583)" x="1757.79" y="146.583">4×10</text>
</g>
<g clip-path="url(#clip8900)">
<text style="fill:#000000; fill-opacity:1; font-family:Arial,Helvetica Neue,Helvetica,sans-serif; font-size:38px; text-anchor:start;" transform="rotate(0, 1866.18, 119.172)" x="1866.18" y="119.172">4</text>
</g>
<g clip-path="url(#clip8900)">
<text style="fill:#000000; fill-opacity:1; font-family:Arial,Helvetica Neue,Helvetica,sans-serif; font-size:82px; text-anchor:middle;" transform="rotate(0, 2536.34, 72)" x="2536.34" y="72">Day0 = After 0 Death Cases</text>
</g>
<g clip-path="url(#clip8900)">
<text style="fill:#000000; fill-opacity:1; font-family:Arial,Helvetica Neue,Helvetica,sans-serif; font-size:66px; text-anchor:middle;" transform="rotate(0, 2536.34, 1159.08)" x="2536.34" y="1159.08">Days</text>
</g>
<g clip-path="url(#clip8900)">
<text style="fill:#000000; fill-opacity:1; font-family:Arial,Helvetica Neue,Helvetica,sans-serif; font-size:66px; text-anchor:middle;" transform="rotate(-90, 1683.55, 556.609)" x="1683.55" y="556.609">CumSum N.Confirmed</text>
</g>
<polyline clip-path="url(#clip8903)" style="stroke:#009af9; stroke-width:4; stroke-opacity:1; fill:none" points="
  1954.82,991.145 1990.06,991.102 2025.31,991.059 2060.55,990.928 2095.8,990.755 2131.04,990.538 2166.28,990.277 2201.53,989.995 2236.77,989.713 2272.01,989.365 
  2307.26,988.996 2342.5,988.389 2377.75,987.781 2412.99,987.021 2448.23,986.261 2483.48,985.349 2518.72,984.394 2553.96,983.309 2589.21,982.158 2624.45,980.986 
  2659.7,979.684 2694.94,978.251 2730.18,976.818 2765.43,975.255 2800.67,973.627 2835.91,971.999 2871.16,970.241 2906.4,968.417 2941.65,966.442 2976.89,964.401 
  3012.13,962.187 3047.38,959.778 3082.62,957.368 
  "/>
<polyline clip-path="url(#clip8903)" style="stroke:#e26f46; stroke-width:4; stroke-opacity:1; fill:none" points="
  1954.82,991.145 1990.06,991.124 2025.31,990.993 2060.55,990.841 2095.8,990.603 2131.04,990.342 2166.28,990.038 2201.53,989.669 2236.77,989.213 2272.01,988.736 
  2307.26,988.128 2342.5,987.347 2377.75,986.478 2412.99,985.458 2448.23,984.286 2483.48,982.918 2518.72,981.073 2553.96,978.729 2589.21,976.167 2624.45,971.825 
  2659.7,966.529 2694.94,959.864 2730.18,950.812 2765.43,938.721 
  "/>
<polyline clip-path="url(#clip8903)" style="stroke:#3da44d; stroke-width:4; stroke-opacity:1; fill:none" points="
  1954.82,991.145 1990.06,991.102 2025.31,991.037 2060.55,990.885 2095.8,990.668 2131.04,990.407 2166.28,990.038 2201.53,989.582 2236.77,988.953 2272.01,988.215 
  2307.26,987.086 2342.5,985.371 2377.75,983.048 2412.99,979.836 2448.23,975.559 2483.48,970.501 2518.72,962.556 2553.96,952.506 2589.21,938.808 2624.45,920.856 
  2659.7,902.903 2694.94,875.421 2730.18,844.14 2765.43,804.871 2800.67,758.025 2835.91,703.691 2871.16,639.045 2906.4,565.13 2941.65,477.604 2976.89,372.864 
  3012.13,253.992 3047.38,122.073 
  "/>
<polyline clip-path="url(#clip8903)" style="stroke:#c271d2; stroke-width:4; stroke-opacity:1; fill:none" points="
  1954.82,991.145 1990.06,991.102 2025.31,991.037 2060.55,990.928 2095.8,990.711 2131.04,990.342 2166.28,989.734 2201.53,988.975 2236.77,987.802 2272.01,986.608 
  2307.26,983.721 2342.5,979.488 2377.75,973.215 2412.99,965.791 2448.23,954.22 2483.48,940.696 2518.72,922.679 2553.96,900.038 2589.21,870.19 2624.45,831.723 
  2659.7,781.557 
  "/>
<polyline clip-path="url(#clip8903)" style="stroke:#ac8d18; stroke-width:4; stroke-opacity:1; fill:none" points="
  1954.82,991.124 1990.06,991.08 2025.31,990.993 2060.55,990.885 2095.8,990.711 2131.04,990.451 2166.28,990.103 2201.53,989.691 2236.77,989.127 2272.01,988.389 
  2307.26,987.455 2342.5,986.283 2377.75,984.85 2412.99,983.179 2448.23,981.182 2483.48,978.859 2518.72,976.167 2553.96,973.019 2589.21,968.808 2624.45,963.663 
  2659.7,957.346 2694.94,949.662 2730.18,940.349 2765.43,929.191 2800.67,915.928 2835.91,900.211 2871.16,881.695 2906.4,860.247 2941.65,835.609 2976.89,807.736 
  3012.13,776.629 3047.38,742.852 3082.62,706.274 3117.86,666.939 
  "/>
<path clip-path="url(#clip8900)" d="
M2015.93 590.401 L2464.35 590.401 L2464.35 227.521 L2015.93 227.521  Z
  " fill="#ffffff" fill-rule="evenodd" fill-opacity="1"/>
<polyline clip-path="url(#clip8900)" style="stroke:#000000; stroke-width:4; stroke-opacity:1; fill:none" points="
  2015.93,590.401 2464.35,590.401 2464.35,227.521 2015.93,227.521 2015.93,590.401 
  "/>
<polyline clip-path="url(#clip8900)" style="stroke:#009af9; stroke-width:4; stroke-opacity:1; fill:none" points="
  2047.93,288.001 2239.93,288.001 
  "/>
<g clip-path="url(#clip8900)">
<text style="fill:#000000; fill-opacity:1; font-family:Arial,Helvetica Neue,Helvetica,sans-serif; font-size:48px; text-anchor:start;" transform="rotate(0, 2271.93, 305.501)" x="2271.93" y="305.501">Korea</text>
</g>
<polyline clip-path="url(#clip8900)" style="stroke:#e26f46; stroke-width:4; stroke-opacity:1; fill:none" points="
  2047.93,348.481 2239.93,348.481 
  "/>
<g clip-path="url(#clip8900)">
<text style="fill:#000000; fill-opacity:1; font-family:Arial,Helvetica Neue,Helvetica,sans-serif; font-size:48px; text-anchor:start;" transform="rotate(0, 2271.93, 365.981)" x="2271.93" y="365.981">US</text>
</g>
<polyline clip-path="url(#clip8900)" style="stroke:#3da44d; stroke-width:4; stroke-opacity:1; fill:none" points="
  2047.93,408.961 2239.93,408.961 
  "/>
<g clip-path="url(#clip8900)">
<text style="fill:#000000; fill-opacity:1; font-family:Arial,Helvetica Neue,Helvetica,sans-serif; font-size:48px; text-anchor:start;" transform="rotate(0, 2271.93, 426.461)" x="2271.93" y="426.461">Italy</text>
</g>
<polyline clip-path="url(#clip8900)" style="stroke:#c271d2; stroke-width:4; stroke-opacity:1; fill:none" points="
  2047.93,469.441 2239.93,469.441 
  "/>
<g clip-path="url(#clip8900)">
<text style="fill:#000000; fill-opacity:1; font-family:Arial,Helvetica Neue,Helvetica,sans-serif; font-size:48px; text-anchor:start;" transform="rotate(0, 2271.93, 486.941)" x="2271.93" y="486.941">Spain</text>
</g>
<polyline clip-path="url(#clip8900)" style="stroke:#ac8d18; stroke-width:4; stroke-opacity:1; fill:none" points="
  2047.93,529.921 2239.93,529.921 
  "/>
<g clip-path="url(#clip8900)">
<text style="fill:#000000; fill-opacity:1; font-family:Arial,Helvetica Neue,Helvetica,sans-serif; font-size:48px; text-anchor:start;" transform="rotate(0, 2271.93, 547.421)" x="2271.93" y="547.421">Iran</text>
</g>
</svg>
